<svg width="60" height="60" viewBox="0 0 60 60" fill="none" xmlns="http://www.w3.org/2000/svg">
<path fill-rule="evenodd" clip-rule="evenodd" d="M54.5955 27.8157L54.0225 33.904C53.0782 43.9355 52.6062 48.9512 49.6497 51.9755C46.6932 55 42.262 55 33.3997 55H26.6002C17.7379 55 13.3068 55 10.3502 51.9755C7.39369 48.9512 6.92162 43.9355 5.97749 33.904L5.40452 27.8157C4.95449 23.0342 4.72949 20.6435 5.54747 19.6552C5.98994 19.1206 6.59164 18.793 7.23497 18.7365C8.42419 18.632 9.91769 20.3322 12.9047 23.7327C14.4494 25.4912 15.2218 26.3705 16.0834 26.5068C16.5608 26.582 17.0473 26.5045 17.4881 26.2827C18.2838 25.8822 18.8142 24.7953 19.8752 22.6213L25.4672 11.1621C27.472 7.05405 28.4745 5 30 5C31.5255 5 32.528 7.05405 34.5327 11.1621L40.1247 22.6213C41.1857 24.7953 41.7162 25.8822 42.5117 26.2827C42.9527 26.5045 43.4392 26.582 43.9165 26.5068C44.7782 26.3705 45.5505 25.4912 47.0952 23.7327C50.0822 20.3322 51.5757 18.632 52.765 18.7365C53.4082 18.793 54.01 19.1206 54.4525 19.6552C55.2705 20.6435 55.0455 23.0342 54.5955 27.8157ZM32.381 31.7475L32.1352 31.3068C31.1852 29.6025 30.7102 28.7505 30 28.7505C29.2897 28.7505 28.8147 29.6025 27.8647 31.3068L27.619 31.7475C27.3492 32.2318 27.2142 32.474 27.0037 32.6338C26.7932 32.7935 26.5312 32.8527 26.007 32.9715L25.5297 33.0795C23.6849 33.4968 22.7625 33.7055 22.5431 34.4112C22.3236 35.117 22.9524 35.8523 24.2101 37.3228L24.5354 37.7032C24.8928 38.1212 25.0715 38.3303 25.152 38.5888C25.2322 38.8473 25.2052 39.126 25.1512 39.6835L25.102 40.1912C24.9119 42.1532 24.8168 43.1345 25.3912 43.5705C25.966 44.0067 26.8295 43.609 28.5567 42.8137L29.0035 42.608C29.4945 42.382 29.7397 42.269 30 42.269C30.2602 42.269 30.5055 42.382 30.9965 42.608L31.4432 42.8137C33.1705 43.609 34.034 44.0067 34.6087 43.5705C35.1832 43.1345 35.088 42.1532 34.898 40.1912L34.8487 39.6835C34.7947 39.126 34.7677 38.8473 34.848 38.5888C34.9285 38.3303 35.1072 38.1212 35.4645 37.7032L35.79 37.3228C37.0475 35.8523 37.6765 35.117 37.457 34.4112C37.2375 33.7055 36.315 33.4968 34.4702 33.0795L33.993 32.9715C33.4687 32.8527 33.2067 32.7935 32.9962 32.6338C32.7857 32.474 32.6507 32.2318 32.381 31.7475Z" fill="#18CC00"/>
</svg>
