<svg width="33" height="33" viewBox="0 0 33 33" fill="none" xmlns="http://www.w3.org/2000/svg">
<path fill-rule="evenodd" clip-rule="evenodd" d="M16.25 32.5C25.2246 32.5 32.5 25.2246 32.5 16.25C32.5 7.27537 25.2246 0 16.25 0C7.27537 0 0 7.27537 0 16.25C0 25.2246 7.27537 32.5 16.25 32.5ZM17.4688 11.375C17.4688 10.7019 16.9231 10.1562 16.25 10.1562C15.5769 10.1562 15.0312 10.7019 15.0312 11.375V15.0312H11.375C10.7019 15.0312 10.1562 15.5769 10.1562 16.25C10.1562 16.9231 10.7019 17.4688 11.375 17.4688H15.0312V21.125C15.0312 21.7981 15.5769 22.3438 16.25 22.3438C16.9231 22.3438 17.4688 21.7981 17.4688 21.125V17.4688H21.125C21.7981 17.4688 22.3438 16.9231 22.3438 16.25C22.3438 15.5769 21.7981 15.0312 21.125 15.0312H17.4688V11.375Z" fill="#FF7700"/>
</svg>
