<svg width="100" height="100" viewBox="0 0 100 100" fill="none" xmlns="http://www.w3.org/2000/svg">
<path d="M64.3175 60.4425L62.4196 62.3292C62.4196 62.3292 57.9087 66.8146 45.5962 54.5717C33.2838 42.3292 37.7946 37.844 37.7946 37.844L38.9896 36.6557C41.9337 33.7285 42.2112 29.0288 39.6425 25.5978L34.3886 18.5795C31.2095 14.333 25.0665 13.772 21.4227 17.3951L14.8827 23.898C13.076 25.6945 11.8652 28.0233 12.012 30.6067C12.3877 37.2159 15.378 51.4362 32.064 68.0275C49.7587 85.6217 66.3617 86.3208 73.1512 85.6879C75.2987 85.4879 77.1662 84.3942 78.6712 82.8975L84.5904 77.0125C88.5858 73.0396 87.4592 66.2287 82.3471 63.45L74.3867 59.1225C71.03 57.2979 66.9408 57.8337 64.3175 60.4425Z" fill="white"/>
</svg>
