<svg width="120" height="120" viewBox="0 0 120 120" fill="none" xmlns="http://www.w3.org/2000/svg">
<mask id="mask0_7276_4923" style="mask-type:luminance" maskUnits="userSpaceOnUse" x="4" y="42" width="112" height="70">
<path d="M4.54333 42.0122H115.446V111.612H4.54333V42.0122Z" fill="white"/>
</mask>
<g mask="url(#mask0_7276_4923)">
<path d="M107.87 43.3708L7.84553 50.5259C6.68118 50.608 5.80097 51.6242 5.88488 52.7892L9.85653 108.309C9.9387 109.474 10.9543 110.353 12.1187 110.271L112.143 103.115C112.708 103.076 113.223 102.818 113.593 102.39C113.963 101.962 114.145 101.416 114.104 100.853L110.134 45.3314C110.05 44.1671 109.034 43.288 107.87 43.3708ZM12.2136 111.603C10.3143 111.738 8.65919 110.304 8.52377 108.404L4.55213 52.8841C4.48616 51.9639 4.78303 51.0739 5.3872 50.376C5.99137 49.6792 6.82991 49.2591 7.75005 49.1931L107.774 42.038C109.674 41.9037 111.33 43.3372 111.465 45.2371L115.437 100.757C115.503 101.677 115.205 102.567 114.601 103.265C113.998 103.962 113.159 104.382 112.239 104.448L12.2147 111.603H12.2136Z" fill="#FF7700"/>
</g>
<path d="M112.157 103.306L12.133 110.462C10.861 110.553 9.75514 109.595 9.66486 108.322L5.69322 52.8021C5.60178 51.5301 6.55896 50.4242 7.83269 50.3339L107.855 43.1788C109.128 43.0874 110.234 44.0457 110.324 45.3177L114.296 100.838C114.387 102.111 113.429 103.216 112.157 103.306ZM111.274 45.2494C111.145 43.4572 109.582 42.1024 107.788 42.2292L7.7644 49.3843C6.89461 49.4468 6.10236 49.8432 5.53234 50.5023C4.96116 51.1603 4.68165 52.0012 4.74357 52.8704L8.71521 108.391C8.84368 110.183 10.4062 111.539 12.199 111.411H12.2013L112.224 104.256C113.094 104.194 113.886 103.797 114.457 103.139C115.027 102.48 115.307 101.639 115.245 100.77L111.274 45.2494Z" fill="#FF7700"/>
<path d="M106.186 47.1614L10.15 54.298C10.0157 54.3079 9.91559 54.43 9.92543 54.5694L13.7258 105.709C13.7368 105.85 13.8531 105.955 13.9862 105.946L110.024 98.8096C110.158 98.7998 110.258 98.6777 110.248 98.537L106.448 47.3976C106.437 47.2581 106.321 47.151 106.188 47.1614L106.173 46.9699L106.186 47.1614ZM14.0863 107.35C13.1974 107.412 12.4185 106.722 12.3502 105.811L8.54985 54.6719C8.51686 54.2309 8.65459 53.8027 8.93527 53.467C9.21825 53.1302 9.61177 52.9265 10.0458 52.8947L106.087 45.7581C106.976 45.6956 107.755 46.3842 107.822 47.2957L111.623 98.4346C111.691 99.3489 111.021 100.147 110.128 100.213L14.0863 107.35Z" fill="#FF7700"/>
<path d="M110.038 99.0011L14.0017 106.136C13.7615 106.156 13.5526 105.969 13.5341 105.723L9.73431 54.585C9.71637 54.3384 9.89577 54.1237 10.1359 54.1064L106.172 46.9698C106.412 46.9519 106.621 47.1382 106.639 47.3836L110.439 98.5225C110.457 98.769 110.278 98.9837 110.038 99.0011ZM107.632 47.3095C107.572 46.5011 106.884 45.8911 106.096 45.9496L10.0595 53.0861C9.27193 53.1446 8.68223 53.8489 8.74125 54.6573L12.5416 105.797C12.6018 106.606 13.2899 107.215 14.0775 107.157L110.114 100.021C110.902 99.9629 111.491 99.2586 111.431 98.4496L107.632 47.3095Z" fill="#FF7700"/>
<path d="M55.0694 10.2546L55.0584 10.2558C53.3217 10.3842 52.0133 11.9033 52.1429 13.6394C52.2708 15.3721 53.7847 16.6794 55.5162 16.5573L55.5272 16.5561C56.368 16.493 57.1348 16.107 57.6863 15.4676C58.2361 14.8293 58.5046 14.0127 58.4421 13.1718C58.3142 11.4409 56.8003 10.1325 55.0694 10.2546Z" fill="#FF7700"/>
<path d="M15.846 67.8489C16.0434 67.7268 16.206 67.6608 16.3345 67.6522C16.5173 67.64 16.6261 67.6475 16.6614 67.6782C16.6967 67.7193 16.7407 67.8125 16.7945 67.96C16.9722 68.3368 17.1799 68.614 17.4195 68.7922C17.6487 68.9814 17.9097 69.0648 18.199 69.0451C18.4149 69.03 18.596 68.9305 18.7459 68.7471C18.8958 68.5642 18.9658 68.3431 18.9583 68.0844C18.9427 67.8576 18.8021 67.6203 18.5358 67.368C18.2685 67.1064 17.9161 66.7696 17.4757 66.357C17.151 66.0439 16.9068 65.7164 16.743 65.3709C16.5659 65.0162 16.467 64.6666 16.4427 64.3217C16.39 63.5694 16.533 62.846 16.8738 62.1527C17.2129 61.4473 17.7343 60.7853 18.4369 60.1631C18.7511 59.8923 19.0509 59.688 19.3333 59.5491C19.6151 59.4103 19.8154 59.3368 19.9334 59.3292C20.1921 59.3211 20.4282 59.3697 20.6412 59.4733C20.842 59.5787 21.0613 59.6932 21.2968 59.8165C21.5301 59.9091 21.7471 60.0017 21.9485 60.0949C22.1597 60.1886 22.3333 60.3547 22.4699 60.5937C22.6163 60.8321 22.7066 61.2031 22.7419 61.7083C22.7812 62.4305 22.7089 63.0133 22.5249 63.4583C22.3391 63.9039 22.0856 64.1423 21.7644 64.1765C21.6348 64.1857 21.4728 64.1799 21.2772 64.1614C21.081 64.1423 20.9016 64.1226 20.7378 64.1018C20.5625 64.0711 20.4415 64.0416 20.3755 64.0138C20.2436 63.9809 20.1632 63.9213 20.136 63.8368C20.0972 63.7419 20.0729 63.6296 20.0642 63.5011L20.0468 63.2586C20.0376 62.9791 20.0422 62.7349 20.0607 62.5295C20.0897 62.3223 20.0995 62.1527 20.0897 62.0243C20.0874 61.9814 20.0688 61.9502 20.0347 61.9305C20.0005 61.901 19.9566 61.8877 19.9027 61.8923C19.8385 61.9074 19.7361 61.9901 19.5955 62.14C19.4548 62.2905 19.3235 62.4942 19.2014 62.7517C19.0891 63.0081 19.0387 63.2864 19.0486 63.5891C19.085 63.9531 19.2488 64.2766 19.5382 64.5584C19.8165 64.8316 20.1678 65.1307 20.5902 65.4577C20.9699 65.7876 21.2615 66.1082 21.4676 66.4172C21.673 66.7384 21.7887 67.0752 21.8142 67.4305C21.8489 68.0978 21.7158 68.7338 21.4126 69.3379C21.1088 69.9432 20.6852 70.4485 20.1412 70.8541C19.6076 71.2581 19.0191 71.4895 18.3738 71.5445C17.8466 71.5706 17.3374 71.4774 16.8478 71.2627C16.3669 71.037 15.9658 70.7193 15.6458 70.3096C15.3258 69.9004 15.1464 69.4207 15.1076 68.8726C15.1036 68.8084 15.0989 68.7384 15.0931 68.6632C15.0978 68.5763 15.1024 68.4838 15.1064 68.386C15.4039 68.1603 15.6504 67.9809 15.846 67.8489Z" fill="#FF7700"/>
<path d="M25.6481 68.4908C25.7471 68.6679 25.8767 68.7506 26.0387 68.7396C26.2326 68.7252 26.4317 68.5712 26.6383 68.2761C26.8553 67.9798 27.0885 67.5365 27.3397 66.9468C27.6452 66.2339 27.8819 65.5192 28.048 64.8062C28.2043 64.1031 28.2592 63.3479 28.2135 62.5417C28.1823 62.0903 28.1151 61.7535 28.0127 61.5348C27.9114 61.3143 27.7905 61.2101 27.651 61.22C27.5862 61.224 27.4716 61.3565 27.3067 61.6158C27.1302 61.8878 26.9103 62.2871 26.6441 62.8131C26.3258 63.5163 26.0764 64.1934 25.8958 64.8427C25.7152 65.5041 25.5931 66.0851 25.5312 66.5869C25.4687 67.0886 25.4467 67.463 25.4641 67.7096C25.4884 68.0539 25.5492 68.3143 25.6481 68.4908ZM25.9068 71.0174C25.7627 70.9624 25.6458 70.9214 25.5578 70.8965C25.5359 70.8976 25.5139 70.893 25.4919 70.8843C25.4699 70.8855 25.449 70.8872 25.4271 70.8884L25.2176 70.904C25.1527 70.9086 25.0821 70.9075 25.0063 70.9017C24.9305 70.8965 24.8489 70.8809 24.7598 70.8542C24.1736 70.6476 23.7199 70.2732 23.4022 69.7344C23.0827 69.1951 22.8923 68.4839 22.831 67.6025C22.7957 67.0973 22.8397 66.4943 22.9641 65.7946C23.0764 65.0944 23.2731 64.3571 23.5538 63.5817C23.8333 62.7946 24.1967 62.0342 24.6423 61.3004C24.9218 60.816 25.1834 60.3976 25.4288 60.0458C25.6632 59.6835 25.9091 59.4017 26.1643 59.2003C26.4195 58.9879 26.7147 58.8704 27.048 58.8473C27.0897 58.8438 27.1493 58.8398 27.2251 58.834C27.3009 58.8398 27.3865 58.8398 27.4838 58.8317C27.6661 58.8195 27.8565 58.8386 28.0549 58.8901C28.2529 58.941 28.4838 59.0001 28.7482 59.0672C29.4305 59.2466 29.9583 59.6042 30.3304 60.1401C30.7025 60.676 30.9213 61.4017 30.9855 62.3149C31.0324 62.9925 31.0063 63.6858 30.9039 64.3947C30.8026 65.1042 30.6296 65.8021 30.3865 66.4902C30.0688 67.3548 29.7054 68.11 29.2974 68.7535C28.8889 69.3988 28.5069 69.8895 28.1527 70.2281C27.8987 70.4509 27.6354 70.6418 27.3657 70.8016C27.085 70.9515 26.831 71.0394 26.6065 71.066L26.445 71.077C26.2291 71.0811 26.0497 71.0614 25.9068 71.0174Z" fill="#FF7700"/>
<path d="M34.9351 64.0966C34.9583 64.1163 34.9855 64.125 35.0185 64.1227C35.0393 64.1215 35.1273 64.0666 35.2818 63.9589C35.4467 63.8501 35.6469 63.6956 35.8813 63.4954C36.1267 63.2841 36.3842 63.0336 36.6562 62.7436C37.0069 62.3634 37.2569 62.0058 37.4068 61.6701C37.5561 61.3362 37.6232 61.0556 37.607 60.8304C37.5972 60.6794 37.519 60.5718 37.3738 60.5058C37.2291 60.4404 37.0214 60.4167 36.7528 60.4363C36.3558 60.4635 36.0671 60.5168 35.8888 60.5938C35.7094 60.6609 35.5983 60.7598 35.5532 60.8929C35.5347 60.9369 35.4959 61.0856 35.4392 61.3385C35.3807 61.5909 35.3038 61.9473 35.2054 62.4086C35.1012 62.912 35.0196 63.3021 34.9635 63.5758C34.9172 63.8391 34.8952 63.9855 34.8975 64.0185C34.8998 64.0503 34.912 64.0764 34.9351 64.0966ZM37.8744 66.7263C38.1087 67.1314 38.3188 67.5058 38.5046 67.8501C38.6898 68.1823 38.7986 68.5093 38.8327 68.8316L38.835 68.8634C38.8292 68.9398 38.758 69.0793 38.6215 69.2841C38.4837 69.4878 38.3298 69.6823 38.1591 69.8675C37.9901 70.0631 37.8454 70.1701 37.728 70.1898C37.5023 70.2049 37.2326 70.0567 36.9189 69.7431C36.5943 69.4317 36.1828 68.9525 35.6845 68.3067C35.3269 67.8345 35.0624 67.4531 34.8911 67.162C34.7181 66.8617 34.5948 66.7135 34.519 66.7188C34.4108 66.7263 34.3339 66.8565 34.287 67.1071C34.2517 67.3692 34.2117 67.7292 34.1678 68.1858C34.1249 68.6534 34.0503 69.2049 33.9432 69.8385C33.9126 70.0139 33.8784 70.151 33.8431 70.25C33.8061 70.3501 33.7308 70.4317 33.6163 70.4936C33.5011 70.544 33.3095 70.5793 33.041 70.599C33.019 70.6001 32.9421 70.5781 32.809 70.5341C32.6764 70.489 32.515 70.4294 32.3269 70.3571C32.1487 70.283 31.9693 70.1933 31.7899 70.0862C31.6984 70.0278 31.6348 69.9578 31.596 69.8727C31.5468 69.7905 31.519 69.6956 31.5115 69.588C31.5023 69.4688 31.6145 68.603 31.8472 66.9873C32.0804 65.3819 32.4635 63.0486 32.9936 59.9861C33.0497 59.7014 33.1047 59.4809 33.1585 59.3258C33.2227 59.1597 33.2864 59.0637 33.3489 59.0376C33.412 59.0012 33.5271 58.9549 33.6955 58.8999C33.8639 58.8339 34.0746 58.7546 34.3275 58.6609C34.9293 58.4676 35.4236 58.3356 35.8078 58.265C36.1915 58.1956 36.4259 58.1626 36.5133 58.1672C36.7175 58.1528 36.9606 58.158 37.2436 58.1811C37.5376 58.2141 37.8269 58.265 38.1128 58.331C38.3992 58.397 38.6325 58.4896 38.813 58.6059C38.9033 58.6644 38.9837 58.7292 39.0538 58.7998C39.1122 58.8715 39.1672 58.9537 39.217 59.0475C39.4797 59.559 39.6782 59.9936 39.8113 60.3513C39.9432 60.6979 40.0156 60.9635 40.0289 61.1458C40.0595 61.5984 39.9716 62.0417 39.765 62.4774C39.5457 62.9034 39.2268 63.3524 38.8067 63.8258C38.3848 64.287 37.8744 64.7928 37.2754 65.342C37.4409 65.8605 37.6411 66.3218 37.8744 66.7263Z" fill="#FF7700"/>
<path d="M43.6122 63.489C43.6353 63.5087 43.6625 63.5174 43.6944 63.5157C43.7169 63.5133 43.8049 63.4595 43.9588 63.3502C44.1238 63.2425 44.324 63.0874 44.5584 62.8872C44.8026 62.676 45.0613 62.426 45.3321 62.1366C45.6845 61.7547 45.9339 61.397 46.0838 61.0625C46.2337 60.728 46.3008 60.4474 46.2841 60.2217C46.2742 60.0718 46.1961 59.9642 46.0508 59.8982C45.9056 59.8334 45.6984 59.8091 45.4299 59.8276C45.0329 59.8565 44.7447 59.908 44.5665 59.9861C44.3871 60.0521 44.2748 60.1522 44.2308 60.2842C44.2117 60.3293 44.1735 60.478 44.1162 60.7304C44.0578 60.9833 43.9797 61.3397 43.883 61.7998C43.7771 62.305 43.6967 62.6945 43.6405 62.9682C43.5937 63.2304 43.5717 63.3779 43.5746 63.4098C43.5769 63.4427 43.589 63.4682 43.6122 63.489ZM46.5514 66.1193C46.7846 66.5243 46.9947 66.8982 47.1811 67.2414C47.3668 67.5753 47.4756 67.9017 47.5098 68.2234L47.5109 68.2564C47.5069 68.3322 47.4351 68.4717 47.2974 68.6765C47.1614 68.8802 47.0069 69.0753 46.8367 69.2599C46.666 69.4549 46.5231 69.5625 46.405 69.5811C46.1793 69.5967 45.9096 69.448 45.596 69.1355C45.2719 68.8241 44.8599 68.3444 44.3605 67.6985C44.004 67.2275 43.7389 66.8455 43.5682 66.555C43.3952 66.2535 43.2708 66.1059 43.1961 66.1106C43.0885 66.1181 43.0115 66.2477 42.964 66.5C42.9287 66.7616 42.8882 67.1216 42.8448 67.5782C42.802 68.0458 42.7274 68.5961 42.6209 69.2304C42.5896 69.4063 42.5555 69.5429 42.5196 69.643C42.4831 69.7431 42.4079 69.8235 42.2939 69.886C42.1782 69.9364 41.9855 69.9717 41.7169 69.9908C41.6961 69.9925 41.6191 69.9705 41.486 69.9254C41.3529 69.8814 41.192 69.8224 41.004 69.7483C40.8257 69.6748 40.6463 69.5845 40.4658 69.4786C40.3755 69.4208 40.3118 69.349 40.2731 69.2651C40.2239 69.1829 40.1949 69.0868 40.1886 68.9792C40.1799 68.8617 40.2922 67.9943 40.5242 66.3791C40.7574 64.7743 41.1405 62.4416 41.6706 59.3785C41.7268 59.0938 41.7817 58.8739 41.835 58.7182C41.8998 58.5521 41.9623 58.4555 42.0265 58.43C42.0879 58.3924 42.2036 58.3467 42.3732 58.2917C42.5416 58.2263 42.7517 58.1464 43.0045 58.0527C43.6064 57.86 44.0995 57.728 44.4837 57.6574C44.868 57.5874 45.1035 57.555 45.1903 57.5596C45.3946 57.5452 45.6382 57.5498 45.9206 57.573C46.2146 57.6071 46.504 57.6563 46.7904 57.7234C47.0752 57.7894 47.3084 57.8808 47.4901 57.9977C47.5804 58.0573 47.6608 58.1221 47.7302 58.1922C47.7893 58.2639 47.8437 58.3467 47.894 58.4399C48.1562 58.952 48.3541 59.3855 48.4872 59.7443C48.6191 60.0909 48.6932 60.3559 48.7054 60.5388C48.7372 60.9896 48.6492 61.4346 48.442 61.8704C48.2233 62.2963 47.9039 62.7448 47.4826 63.2171C47.0613 63.6794 46.5514 64.1846 45.9519 64.735C46.118 65.2529 46.3182 65.7142 46.5514 66.1193Z" fill="#FF7700"/>
<path d="M51.4606 69.0978C51.3495 69.0619 51.2563 69.0365 51.1788 69.0197C51.037 68.9867 50.8952 68.9693 50.754 68.9693C50.6146 68.978 50.478 68.956 50.3449 68.8999C50.2887 68.8715 50.2436 68.8484 50.2095 68.8287C50.1753 68.7986 50.1568 68.7679 50.1545 68.7349C50.1522 68.7031 50.1776 68.5179 50.2291 68.1794C50.2911 67.8293 50.3732 67.3096 50.4768 66.6221C50.533 66.1962 50.5902 65.8582 50.6487 65.6053C50.706 65.353 50.7309 65.1724 50.7245 65.0648C50.7077 64.9913 50.6354 64.7951 50.5046 64.4803C50.3646 64.1765 50.2251 63.728 50.0862 63.1325C49.9872 62.6429 49.8993 62.0868 49.8235 61.4653C49.7372 60.8443 49.6689 60.1898 49.6221 59.5017C49.6007 59.2112 49.6007 58.9745 49.6198 58.7888C49.6394 58.6042 49.6736 58.4774 49.7233 58.4091C49.7934 58.3385 49.9068 58.2506 50.0607 58.1429C50.2158 58.0451 50.3836 57.9577 50.5619 57.8796C50.7401 57.8027 50.8929 57.7598 51.0214 57.7512C51.4421 57.7216 51.7731 57.9844 52.0173 58.5399C52.25 59.0862 52.4074 59.9387 52.4884 61.0995C52.4994 61.2616 52.5092 61.4016 52.5185 61.5191C52.5162 61.6487 52.5196 61.7621 52.526 61.8594C52.5335 61.978 52.5445 62.0637 52.5602 62.1169C52.5746 62.1696 52.5868 62.1956 52.5978 62.195C52.6614 62.1794 52.7419 62.0174 52.8397 61.7072C52.9363 61.3981 53.0792 60.9832 53.2708 60.4618C53.449 59.9311 53.7048 59.3293 54.0358 58.658C54.309 58.088 54.5301 57.618 54.6985 57.2506C54.8767 56.8709 55.0364 56.5891 55.1747 56.4062C55.3223 56.2124 55.4884 56.1094 55.6713 56.0961C55.8547 56.0937 56.0671 56.1279 56.3107 56.1973C56.5526 56.2668 56.7708 56.3646 56.9629 56.4919C57.1556 56.6186 57.2569 56.7575 57.2679 56.908C57.2754 57.0162 57.1302 57.4155 56.8333 58.1053C56.526 58.8073 56.0596 59.7969 55.4369 61.0723C54.8426 62.3125 54.3692 63.2645 54.0162 63.9271C53.6516 64.6007 53.4438 65.0208 53.3912 65.1858C53.3813 65.2089 53.3159 65.5104 53.195 66.0914C53.063 66.6834 52.8923 67.5608 52.6823 68.7205C52.6678 68.8293 52.6151 68.9196 52.5225 68.9913C52.4195 69.0631 52.1956 69.1111 51.8524 69.1354C51.7008 69.1343 51.5694 69.1221 51.4606 69.0978Z" fill="#FF7700"/>
<path d="M60.5625 57.666C60.4936 57.7673 60.4317 57.8906 60.3779 58.0358C60.3594 58.0798 60.3154 58.2245 60.246 58.4664C60.1875 58.7181 60.0926 59.0659 59.9618 59.5075C59.5891 60.8084 59.3038 61.8281 59.1071 62.5653C58.9097 63.3032 58.7946 63.7488 58.7622 63.9016C58.6875 64.2204 58.625 64.4791 58.5741 64.6776C58.5226 64.8645 58.4508 65.004 58.3594 65.0966C58.2807 65.1892 58.1539 65.2407 57.9821 65.2528C57.8096 65.265 57.6366 65.2563 57.4618 65.2256C57.2766 65.2054 57.1175 65.1683 56.9838 65.1122C56.86 65.0462 56.7894 64.9698 56.7726 64.8842C56.7593 64.8524 56.7894 64.4189 56.86 63.5815C56.9201 62.7459 57.0851 61.5457 57.3536 59.9814C57.5098 59.1278 57.6441 58.4264 57.7575 57.8784C57.8698 57.3304 58.0029 56.9212 58.1574 56.6516C58.3114 56.3807 58.5226 56.2366 58.7923 56.2181C59.0289 56.2123 59.2876 56.2806 59.5677 56.423C59.8594 56.5758 60.114 56.7407 60.3316 56.9201C60.5399 57.1116 60.6528 57.2656 60.6719 57.3825C60.6771 57.4583 60.6406 57.552 60.5625 57.666ZM56.4063 68.6701C56.2147 68.5642 56.0654 68.4288 55.956 68.2638C55.8362 68.0891 55.7703 67.9149 55.7581 67.7436C55.746 67.4195 55.8206 67.1018 55.9826 66.787C56.1441 66.4733 56.3478 66.2106 56.592 65.9988C56.8368 65.7876 57.0822 65.6678 57.3287 65.6394C57.7269 65.6226 58.0671 65.6955 58.3484 65.8593C58.6192 66.0242 58.7714 66.2575 58.8033 66.5572C58.8229 66.8477 58.7645 67.1655 58.6262 67.5098C58.4983 67.8425 58.2969 68.133 58.0232 68.3784C57.7598 68.6348 57.4352 68.7812 57.0492 68.8194C56.8004 68.8263 56.5868 68.7766 56.4063 68.6701Z" fill="#FF7700"/>
<path d="M69.7252 62.6151C69.6528 62.9664 69.5221 63.489 69.3334 64.1823C69.143 64.8657 68.8623 65.7176 68.4908 66.7372C68.3484 67.1799 68.2396 67.5387 68.1615 67.8136C68.0822 68.0793 67.9896 68.221 67.8832 68.2384C67.8403 68.2419 67.6546 68.2112 67.3265 68.1481C67.007 68.0735 66.5452 67.96 65.941 67.8073C65.7865 67.7754 65.6702 67.7245 65.5898 67.6545C65.5093 67.5949 65.4665 67.5168 65.4601 67.4195C65.4567 67.3767 65.4543 67.0422 65.4543 66.4149C65.4543 65.7997 65.4787 64.9172 65.5284 63.7685C65.6303 61.989 65.713 60.5515 65.7767 59.4566C65.8519 58.3703 65.908 57.6209 65.9428 57.2071C65.9474 57.1105 65.9572 57.0179 65.9729 56.9299C65.9989 56.842 66.0793 56.7604 66.2148 56.6869C66.3513 56.6232 66.5857 56.5793 66.919 56.5561C67.1557 56.5393 67.3878 56.5451 67.617 56.5723C67.8444 56.5891 68.0359 56.6134 68.1893 56.6452C68.3542 56.688 68.4434 56.7199 68.4555 56.7396C68.492 56.8026 68.518 56.8651 68.5336 56.9288C68.5493 56.993 68.5579 57.0468 68.5608 57.0897C68.5556 57.1655 68.4949 57.6122 68.3797 58.4311C68.2518 59.2401 68.0759 60.4242 67.8502 61.9855C67.7553 62.6296 67.6696 63.1105 67.595 63.4294C67.5313 63.7477 67.4949 63.9282 67.4868 63.9722C67.4902 64.026 67.5035 64.0625 67.5278 64.0821C67.54 64.114 67.5521 64.1296 67.5631 64.1284C67.6488 64.1227 67.7535 63.9149 67.8756 63.5063C67.9891 63.1105 68.1482 62.5422 68.3565 61.8044C68.5741 61.0648 68.8537 60.1863 69.1928 59.1684C69.3369 58.7592 69.4526 58.4103 69.5406 58.1232C69.6285 57.8356 69.7263 57.618 69.8357 57.4705C69.9434 57.3119 70.0938 57.2251 70.2877 57.2118C70.4063 57.2141 70.588 57.2615 70.8322 57.3518C71.0759 57.4427 71.3959 57.5387 71.7923 57.6412C71.8913 57.6551 71.9584 57.6892 71.9937 57.7401C72.0406 57.7916 72.0672 57.8599 72.0724 57.9456C72.0649 57.9786 72.0342 58.2396 71.9827 58.7291C71.9185 59.2205 71.8363 59.9664 71.7339 60.9676C71.6256 61.8935 71.5498 62.5955 71.5082 63.074L71.4457 63.7916C71.4486 63.8455 71.463 63.8871 71.4862 63.9184C71.4983 63.9392 71.5157 63.949 71.5365 63.9467C71.6129 63.9421 71.6928 63.699 71.7778 63.217C71.8623 62.7361 72.0145 62.0451 72.2321 61.1441C72.4601 60.2303 72.8155 59.1308 73.2975 57.8437C73.4891 57.3437 73.6453 56.9444 73.7651 56.6441C73.8849 56.3547 73.9943 56.1475 74.0944 56.0214C74.1922 55.8848 74.312 55.8177 74.452 55.8177C74.7217 55.7986 74.9821 55.824 75.2356 55.8923C75.4873 55.9508 75.6934 56.033 75.8531 56.1412C76.0221 56.2477 76.1158 56.3547 76.1343 56.4612C76.1326 56.5914 75.9208 57.2766 75.5006 58.5156C75.0684 59.7453 74.4254 61.5301 73.5736 63.8698C73.2767 64.7228 73.0348 65.4311 72.8473 65.9948C72.6702 66.548 72.5417 66.9508 72.4624 67.2054C72.4555 67.2592 72.4393 67.3304 72.4127 67.419C72.3855 67.4971 72.3259 67.5758 72.2344 67.6585C72.132 67.7303 71.9671 67.7743 71.7414 67.7905C71.6557 67.7963 71.5082 67.7853 71.301 67.7563C71.1054 67.7268 70.8745 67.6782 70.6112 67.6099C70.3461 67.5422 70.0863 67.4531 69.8299 67.3408C69.7518 67.3032 69.6945 67.2633 69.6592 67.2228C69.6141 67.1834 69.5892 67.1302 69.5834 67.0665C69.5834 67.0555 69.588 66.8883 69.5967 66.5625C69.6065 66.2378 69.6227 65.7777 69.6459 65.1817C69.665 64.835 69.7113 64.4861 69.7836 64.1348C69.8455 63.7847 69.9028 63.4404 69.9543 63.1018C70.007 62.7737 70.0238 62.4757 70.0047 62.2071C70.003 62.1637 69.9937 62.1319 69.9815 62.1111C69.97 62.0902 69.9474 62.0816 69.9156 62.0839C69.8727 62.0978 69.8102 62.2749 69.7252 62.6151Z" fill="#FF7700"/>
<path d="M76.1853 66.8959C75.974 66.6615 75.856 66.3681 75.8311 66.0122C75.823 65.8947 75.9081 65.2564 76.0863 64.0984C76.2547 62.952 76.5551 61.3114 76.9885 59.1731C77.2177 57.9578 77.3924 57.0602 77.5134 56.4792C77.6343 55.897 77.7489 55.6082 77.8577 55.6117C77.9115 55.6077 77.9601 55.6094 78.0041 55.6175C78.0579 55.625 78.1066 55.6262 78.1505 55.6239C78.1714 55.6216 78.198 55.6094 78.2287 55.5851C78.2703 55.5724 78.3189 55.5631 78.3728 55.5591C78.5018 55.5504 78.6471 55.5515 78.8097 55.5614C78.963 55.5834 79.1257 55.5874 79.2975 55.5753C79.5018 55.5614 79.7263 55.529 79.9717 55.4798C80.2171 55.441 80.4804 55.4115 80.7599 55.3918C80.9856 55.3762 81.2553 55.3739 81.5689 55.3837C81.8843 55.4051 82.1893 55.4433 82.4856 55.4983C82.5724 55.5139 82.6604 55.5457 82.7507 55.5932C82.8409 55.6412 82.9179 55.7437 82.9827 55.9011C83.0475 56.0475 83.0904 56.2778 83.1129 56.5891C83.1204 56.7066 83.1193 56.8368 83.1071 56.9775C83.095 57.1082 83.0817 57.2286 83.0678 57.3374C83.0533 57.4462 83.0412 57.507 83.0313 57.518C82.9619 57.599 82.6592 57.6794 82.1245 57.7599C81.5898 57.8415 80.816 57.9757 79.8033 58.1661C79.7177 58.485 79.643 58.8085 79.5788 59.1378C79.5053 59.4665 79.4526 59.7946 79.4214 60.1216C79.5394 60.1129 79.6638 60.1042 79.7923 60.0949C79.9202 60.0753 80.0545 60.0608 80.1939 60.051C80.6575 60.029 81.0128 60.0203 81.2628 60.0249C81.5117 60.0388 81.6488 60.0677 81.6731 60.1094C81.7779 60.2107 81.8733 60.3496 81.9613 60.5266C82.0504 60.7147 82.1066 60.9005 82.1309 61.0822C82.139 61.2003 82.1268 61.3363 82.095 61.4896C82.0724 61.6424 82.0498 61.779 82.0255 61.8999C81.9902 62.0099 81.9723 62.0718 81.9735 62.0816C81.8722 62.1858 81.5666 62.2882 81.0556 62.3895C80.5331 62.4908 79.8143 62.6493 78.9 62.864C78.8415 63.257 78.7888 63.5805 78.7414 63.831C78.6945 64.0834 78.6743 64.2691 78.6835 64.3872C78.6853 64.419 78.6876 64.4462 78.6887 64.467C78.7009 64.4885 78.713 64.5093 78.7252 64.5301C79.3357 64.4543 79.8132 64.3999 80.1569 64.3652C80.4891 64.331 80.687 64.3056 80.7512 64.29C80.827 64.2957 80.8867 64.3021 80.9306 64.3096C80.9746 64.3299 80.9989 64.3484 80.9995 64.3704L81.0088 64.4994C81.0226 64.5533 81.0759 64.6135 81.1667 64.6829C81.2582 64.7523 81.3583 64.8635 81.4665 65.0185C81.5632 65.1626 81.6257 65.364 81.6546 65.6216C81.6731 65.8901 81.6644 66.0793 81.6291 66.1893C81.595 66.3119 81.5412 66.3907 81.4677 66.4283C81.3936 66.456 81.3033 66.4722 81.1957 66.4798L81.1638 66.4821C80.8745 66.5133 80.5707 66.5834 80.2547 66.6916C79.9376 66.8004 79.61 66.893 79.2686 66.9711C78.9387 67.0371 78.5932 67.1106 78.231 67.1898C77.8687 67.2691 77.5047 67.3814 77.1361 67.5255C76.7125 67.3397 76.3953 67.1291 76.1853 66.8959Z" fill="#FF7700"/>
<path d="M85.8901 54.5949C86.0881 54.6464 86.2709 54.7147 86.4393 54.7998C86.5979 54.8964 86.6859 55.0099 86.7055 55.1377C86.7136 55.2454 86.5979 55.5984 86.3589 56.1997C86.1205 56.8102 85.7987 57.6864 85.393 58.8276C85.3288 59.0046 85.2576 59.1343 85.176 59.2159C85.0967 59.3085 84.992 59.3577 84.8624 59.3675C84.7767 59.3634 84.65 59.3334 84.4839 59.2807C84.3178 59.217 84.1616 59.1464 84.0151 59.0706C83.8809 58.9937 83.8062 58.9288 83.7918 58.8744C83.7819 58.746 83.8213 58.5434 83.9104 58.2674C83.9984 57.9908 84.1008 57.6655 84.2154 57.2888C84.3386 56.9028 84.4497 56.4792 84.5475 56.018C84.5805 55.886 84.6205 55.7593 84.6668 55.6372C84.7125 55.5261 84.7536 55.4092 84.7877 55.2882C84.8369 55.0585 84.8791 54.893 84.915 54.7928C84.9613 54.6817 85.0163 54.6134 85.0794 54.5874C85.1419 54.5608 85.2379 54.5434 85.3676 54.5342L85.4162 54.5313C85.5337 54.5226 85.6922 54.5446 85.8901 54.5949Z" fill="#FF7700"/>
<path d="M89.9971 60.2389C90.0203 60.2592 90.0481 60.2678 90.0799 60.2655C90.1007 60.2644 90.1899 60.2094 90.3438 60.1018C90.5087 59.9924 90.709 59.8384 90.9433 59.6382C91.1881 59.4258 91.4462 59.1758 91.7171 58.8865C92.0683 58.5057 92.3189 58.1481 92.4688 57.8136C92.6187 57.4791 92.6846 57.1984 92.669 56.9727C92.658 56.8222 92.5811 56.7146 92.4358 56.6481C92.2906 56.5832 92.084 56.5601 91.8154 56.5792C91.4167 56.6064 91.1297 56.659 90.9514 56.7366C90.772 56.8037 90.6598 56.9027 90.6158 57.0358C90.5967 57.0798 90.5585 57.2285 90.5 57.4814C90.4427 57.7331 90.3646 58.0902 90.268 58.5508C90.1621 59.0549 90.0816 59.4444 90.0255 59.7187C89.9786 59.9814 89.9566 60.129 89.9584 60.1608C89.9607 60.1932 89.974 60.2192 89.9971 60.2389ZM92.9364 62.8691C93.1696 63.2742 93.3802 63.6486 93.566 63.993C93.7518 64.3251 93.8612 64.6521 93.8941 64.9744L93.8959 65.0063C93.8907 65.0821 93.8189 65.2233 93.6829 65.427C93.5463 65.6301 93.3924 65.8251 93.2217 66.0097C93.051 66.2059 92.9069 66.3124 92.79 66.3327C92.5649 66.3477 92.294 66.1996 91.9804 65.8859C91.6569 65.574 91.2448 65.0954 90.7454 64.4496C90.3889 63.9773 90.1239 63.5954 89.952 63.306C89.7801 63.0045 89.6563 62.8558 89.5811 62.8616C89.4734 62.8691 89.3965 62.9993 89.349 63.2499C89.3125 63.5121 89.2732 63.872 89.2304 64.3286C89.187 64.7962 89.1123 65.3477 89.0058 65.9814C88.974 66.1562 88.9404 66.2939 88.9046 66.394C88.8681 66.493 88.7934 66.5746 88.6789 66.6365C88.5631 66.688 88.3704 66.7233 88.1019 66.7418C88.0799 66.743 88.0041 66.721 87.871 66.677C87.7379 66.6319 87.577 66.5722 87.3878 66.4999C87.2107 66.4247 87.0313 66.3356 86.8507 66.2291C86.7605 66.1706 86.6956 66.1 86.6574 66.0155C86.6088 65.9328 86.5805 65.8373 86.5724 65.7302C86.5649 65.6116 86.676 64.7459 86.9092 63.1301C87.1424 61.5254 87.5243 59.1915 88.0562 56.129C88.1112 55.8437 88.1661 55.6237 88.2199 55.4687C88.2836 55.3026 88.3478 55.2065 88.4103 55.1805C88.4728 55.1428 88.5886 55.0977 88.7581 55.0427C88.9254 54.9768 89.1366 54.8975 89.3895 54.8037C89.9919 54.6104 90.4844 54.4779 90.8687 54.409C91.2529 54.3384 91.4885 54.3055 91.5753 54.3095C91.779 54.2956 92.0232 54.3008 92.305 54.324C92.5996 54.357 92.8889 54.4079 93.1754 54.4739C93.4601 54.541 93.6939 54.6324 93.875 54.7487C93.9653 54.8072 94.0458 54.872 94.1152 54.9426C94.1748 55.0144 94.2286 55.0965 94.2778 55.1903C94.5411 55.7019 94.739 56.1365 94.8721 56.4941C95.0041 56.8419 95.077 57.1064 95.0903 57.2887C95.1221 57.7412 95.0342 58.1845 94.827 58.6203C94.6083 59.0462 94.2877 59.4953 93.8675 59.9687C93.4462 60.4293 92.9364 60.9357 92.3368 61.4849C92.5029 62.0034 92.702 62.464 92.9364 62.8691Z" fill="#FF7700"/>
<path d="M95.6834 65.5289C95.4728 65.2956 95.3553 65.0022 95.3298 64.6463C95.3211 64.5289 95.4056 63.8905 95.5845 62.7326C95.7529 61.5862 96.0544 59.9444 96.4878 57.8072C96.7152 56.5919 96.8906 55.6944 97.0115 55.1134C97.1336 54.5312 97.2482 54.243 97.3559 54.2459C97.4097 54.2418 97.4595 54.2436 97.5023 54.2517C97.5573 54.2592 97.6059 54.2603 97.6487 54.258C97.6707 54.2557 97.6973 54.2436 97.728 54.2198C97.7696 54.2065 97.8183 54.1978 97.8709 54.1932C98.0011 54.1845 98.1464 54.1857 98.309 54.1955C98.4618 54.2164 98.6238 54.2216 98.7963 54.2094C99 54.1955 99.2257 54.1637 99.4699 54.1139C99.7164 54.0752 99.9786 54.0456 100.259 54.026C100.484 54.0103 100.754 54.0074 101.068 54.0184C101.382 54.0393 101.689 54.0775 101.983 54.1324C102.072 54.1481 102.16 54.1787 102.25 54.2274C102.34 54.2748 102.417 54.3767 102.482 54.5341C102.546 54.6816 102.59 54.9108 102.612 55.2233C102.62 55.3408 102.619 55.471 102.606 55.6116C102.593 55.7424 102.58 55.8628 102.567 55.9716C102.553 56.0804 102.54 56.1411 102.531 56.1521C102.46 56.2326 102.159 56.3136 101.624 56.394C101.089 56.4745 100.315 56.6099 99.3015 56.8003C99.217 57.1191 99.1418 57.4426 99.0781 57.7719C99.0046 58.1012 98.9519 58.4287 98.9207 58.7557C99.0387 58.747 99.162 58.7384 99.2916 58.7291C99.4195 58.7094 99.5538 58.6949 99.6933 58.6851C100.157 58.6631 100.512 58.6544 100.761 58.6591C101.01 58.673 101.147 58.7019 101.172 58.7436C101.277 58.8437 101.373 58.9837 101.461 59.1608C101.55 59.3489 101.606 59.5335 101.629 59.7164C101.638 59.8344 101.626 59.9704 101.593 60.1238C101.572 60.2765 101.549 60.4131 101.524 60.5341C101.49 60.644 101.472 60.7048 101.473 60.7158C101.371 60.8199 101.066 60.9224 100.554 61.0225C100.031 61.1249 99.3136 61.2835 98.3993 61.4982C98.3397 61.8911 98.2882 62.2146 98.2407 62.4652C98.1933 62.7175 98.1736 62.9021 98.1823 63.0213C98.1846 63.0532 98.1857 63.0792 98.188 63.1018C98.2002 63.1226 98.2124 63.1434 98.2245 63.1631C98.835 63.0885 99.3113 63.0335 99.6551 62.9982C99.9872 62.9652 100.186 62.9397 100.25 62.9241C100.325 62.9299 100.385 62.9363 100.429 62.9444C100.473 62.9629 100.496 62.9826 100.499 63.0046L100.507 63.1336C100.522 63.1863 100.575 63.2476 100.666 63.3171C100.757 63.3865 100.858 63.4976 100.965 63.6527C101.061 63.7968 101.124 63.997 101.154 64.2546C101.172 64.5242 101.164 64.7135 101.128 64.824C101.093 64.9461 101.039 65.0254 100.966 65.0624C100.893 65.089 100.803 65.1064 100.695 65.1145L100.663 65.1162C100.372 65.1475 100.07 65.2164 99.754 65.3257C99.4369 65.4345 99.1088 65.5271 98.7679 65.6052C98.4375 65.6712 98.0908 65.7447 97.7303 65.824C97.368 65.9033 97.0029 66.0155 96.6354 66.1596C96.2112 65.9739 95.8946 65.7638 95.6834 65.5289Z" fill="#FF7700"/>
<path d="M32.316 85.9144L26.1997 86.3438L25.9132 82.2552C25.8299 81.0666 25.713 80.3293 25.5614 80.0446C25.4103 79.7581 25.1111 79.632 24.6667 79.6626C24.1626 79.6979 23.8553 79.8993 23.7454 80.2668C23.6343 80.6354 23.621 81.4144 23.7049 82.6053L24.4693 93.5295C24.5498 94.6719 24.6696 95.4138 24.8293 95.7529C24.9902 96.0914 25.3067 96.2448 25.7813 96.2112C26.2367 96.1794 26.522 95.9838 26.6383 95.625C26.7541 95.2651 26.7674 94.4398 26.6759 93.1487L26.4688 90.1933L32.5845 89.7639L32.6493 90.6806C32.82 93.1146 32.768 94.8536 32.4965 95.8958C32.2234 96.9387 31.5255 97.8843 30.4034 98.7327C29.2795 99.581 27.8565 100.065 26.1331 100.186C24.3409 100.312 22.842 100.091 21.6337 99.5237C20.4265 98.956 19.5932 98.1123 19.1354 96.9908C18.6777 95.8692 18.3675 94.1568 18.2066 91.8513L17.7245 84.9809C17.6059 83.2865 17.5752 82.011 17.632 81.1551C17.6892 80.2998 17.978 79.4601 18.4994 78.6348C19.0208 77.8096 19.7761 77.1372 20.7662 76.614C21.757 76.0926 22.9155 75.7859 24.2419 75.6921C26.0434 75.5666 27.5538 75.8108 28.7743 76.4248C29.9948 77.0394 30.8258 77.8536 31.2674 78.8669C31.7072 79.8802 32.0046 81.485 32.1586 83.6806L32.316 85.9144Z" fill="#FF7700"/>
<path d="M39.9068 75.0914L41.2239 93.9039L44.9438 93.6429L45.2725 98.3495L35.4392 99.0388L33.7916 75.5191L39.9068 75.0914Z" fill="#FF7700"/>
<path d="M52.9398 80.2512C52.8629 79.1574 52.7529 78.4618 52.6105 78.165C52.4676 77.8675 52.2078 77.7332 51.8304 77.7599C51.5116 77.7819 51.2749 77.9231 51.1227 78.1812C50.9711 78.4398 50.9369 79.1754 51.0214 80.3854L51.7911 91.3675C51.8866 92.7327 52.0012 93.5718 52.1354 93.8831C52.2685 94.1956 52.5394 94.3374 52.9462 94.3091C53.3623 94.279 53.6157 94.0764 53.7066 93.7003C53.7969 93.3253 53.794 92.4433 53.6968 91.0591L52.9398 80.2512ZM59.5967 87.551C59.7616 89.9138 59.8235 91.5909 59.7801 92.5822C59.7384 93.5724 59.4526 94.4948 58.9242 95.3501C58.3947 96.2037 57.6464 96.8837 56.6806 97.3901C55.713 97.8953 54.5666 98.1945 53.239 98.2882C51.9803 98.3762 50.8357 98.2494 49.8044 97.9074C48.7732 97.566 47.9236 97.0058 47.2558 96.2246C46.588 95.4445 46.162 94.5753 45.978 93.6146C45.7946 92.654 45.6175 90.9636 45.4479 88.5423L45.1661 84.518C45 82.1551 44.9381 80.478 44.9809 79.4879C45.0243 78.4971 45.309 77.5741 45.8385 76.7199C46.3681 75.8646 47.1152 75.1846 48.0822 74.6794C49.0486 74.1736 50.1962 73.8739 51.5226 73.7819C52.7813 73.6939 53.9271 73.82 54.9583 74.1615C55.989 74.5023 56.8385 75.0637 57.507 75.8438C58.1736 76.6244 58.6007 77.4948 58.7842 78.4555C58.9682 79.415 59.1453 81.1065 59.3148 83.5272L59.5967 87.551Z" fill="#FF7700"/>
<path d="M74.3681 79.8299L68.6887 80.2281L68.5666 78.485C68.5093 77.6719 68.4005 77.1592 68.2396 76.9457C68.0793 76.7333 67.8293 76.6384 67.4902 76.6627C67.1215 76.6893 66.8542 76.8588 66.6869 77.1725C66.5185 77.4862 66.456 77.948 66.4988 78.5591C66.5538 79.3432 66.7014 79.9266 66.941 80.3097C67.1725 80.6928 67.7818 81.132 68.7703 81.6256C71.6059 83.051 73.4144 84.257 74.1933 85.2443C74.9722 86.2315 75.4433 87.8768 75.6053 90.1812C75.7217 91.8571 75.6129 93.1048 75.276 93.9271C74.9392 94.7477 74.2286 95.4676 73.1424 96.084C72.0561 96.6991 70.7674 97.0602 69.276 97.1644C67.6401 97.279 66.2217 97.0666 65.0208 96.5284C63.82 95.9891 63.007 95.2529 62.581 94.3201C62.1563 93.3855 61.8814 92.0377 61.7581 90.2755L61.6499 88.7362L67.3299 88.3374L67.5301 91.1991C67.5926 92.0805 67.7112 92.6418 67.8889 92.8826C68.0671 93.1227 68.3588 93.2281 68.7656 93.2009C69.1719 93.1719 69.4635 92.9914 69.6395 92.6569C69.8154 92.3235 69.8814 91.8426 69.8374 91.213C69.7407 89.8276 69.4884 88.9364 69.0816 88.5359C68.6632 88.1372 67.6597 87.4925 66.0695 86.6013C64.478 85.7009 63.4207 85.0394 62.8947 84.6193C62.3686 84.1985 61.9155 83.5978 61.5347 82.8166C61.1539 82.0365 60.9196 81.0209 60.8322 79.7715C60.706 77.97 60.8432 76.6372 61.2448 75.7726C61.647 74.9063 62.3443 74.2032 63.338 73.6615C64.3322 73.1204 65.5556 72.7992 67.0081 72.6968C68.5961 72.5857 69.9676 72.7472 71.1221 73.1818C72.276 73.6175 73.0631 74.2119 73.4803 74.9659C73.8982 75.7194 74.1725 77.0313 74.3032 78.9011L74.3681 79.8299Z" fill="#FF7700"/>
<path d="M76.2963 72.5422L86.493 71.8281L86.8235 76.5341L82.7419 76.8212L83.0544 81.2801L86.8738 81.0127L87.1875 85.4861L83.3669 85.7546L83.7286 90.9259L88.2176 90.6111L88.548 95.3177L77.9438 96.0608L76.2963 72.5422Z" fill="#FF7700"/>
<path d="M95.0561 75.2719L96.14 90.7418C97.0202 90.6804 97.5509 90.4657 97.7291 90.0983C97.9074 89.7308 97.9427 88.762 97.8327 87.1943L97.1921 78.056C97.1174 76.9906 97.0359 76.3106 96.9467 76.0155C96.8588 75.7192 96.6881 75.5103 96.4357 75.387C96.184 75.2638 95.7239 75.2256 95.0561 75.2719ZM88.658 71.6764L93.2338 71.3564C96.1875 71.1492 98.1944 71.1446 99.254 71.3431C100.314 71.541 101.137 71.9304 101.724 72.5126C102.309 73.0948 102.697 73.7609 102.885 74.5109C103.074 75.2626 103.247 76.7516 103.402 78.9791L103.98 87.2152C104.127 89.3269 104.127 90.7453 103.979 91.4704C103.83 92.1966 103.523 92.7777 103.057 93.2134C102.591 93.6503 102 93.9738 101.286 94.1845C100.571 94.3957 99.4809 94.552 98.0196 94.6544L90.3049 95.1943L88.658 71.6764Z" fill="#FF7700"/>
<path d="M58.6482 9.65152C57.588 8.8153 56.2633 8.40673 54.915 8.5028L54.8953 8.50395C53.5562 8.60291 52.309 9.19261 51.3791 10.1666L17.496 47.2447L19.3964 47.1093L52.3299 11.0676C53.0365 10.328 53.9821 9.87953 54.9919 9.8043L55.0041 9.80314C56.0214 9.73081 57.0272 10.0433 57.8345 10.6793L96.4236 41.5994L98.3484 41.4617L58.6482 9.65152Z" fill="#FF7700"/>
</svg>
