<svg xmlns="http://www.w3.org/2000/svg" xmlns:xlink="http://www.w3.org/1999/xlink" width="96" zoomAndPan="magnify" viewBox="0 0 72 72" height="96" preserveAspectRatio="xMidYMid meet" version="1.0"><defs><clipPath id="8defdc9eb2"><path d="M 7.5 13.40625 L 64 13.40625 L 64 58.40625 L 7.5 58.40625 Z M 7.5 13.40625 " clip-rule="nonzero"/></clipPath><clipPath id="1615b9a919"><path d="M 63.203125 40.457031 C 62.519531 39.425781 61.296875 38.90625 59.519531 38.945312 C 59.429688 38.945312 59.347656 38.960938 59.265625 38.996094 L 55.300781 40.632812 L 55.300781 17.058594 C 55.300781 16.574219 55.207031 16.113281 55.023438 15.667969 C 54.835938 15.222656 54.574219 14.828125 54.234375 14.488281 C 53.894531 14.148438 53.5 13.882812 53.054688 13.699219 C 52.609375 13.515625 52.144531 13.421875 51.664062 13.421875 L 25.613281 13.421875 C 25.132812 13.421875 24.667969 13.515625 24.222656 13.699219 C 23.777344 13.882812 23.386719 14.148438 23.046875 14.488281 C 22.703125 14.828125 22.441406 15.222656 22.257812 15.667969 C 22.070312 16.113281 21.980469 16.574219 21.980469 17.058594 L 21.980469 36.863281 L 17.925781 36.863281 L 17.925781 34.421875 C 17.925781 34.230469 17.859375 34.066406 17.722656 33.929688 C 17.585938 33.792969 17.421875 33.722656 17.226562 33.722656 L 8.167969 33.722656 C 7.972656 33.722656 7.808594 33.792969 7.671875 33.929688 C 7.535156 34.066406 7.46875 34.230469 7.46875 34.421875 L 7.46875 56.3125 C 7.46875 56.503906 7.535156 56.667969 7.671875 56.804688 C 7.808594 56.941406 7.972656 57.011719 8.167969 57.011719 L 17.226562 57.011719 C 17.421875 57.011719 17.585938 56.941406 17.722656 56.804688 C 17.859375 56.667969 17.925781 56.503906 17.925781 56.3125 L 17.925781 54.304688 L 23.453125 54.304688 L 32.742188 57.835938 C 33.988281 58.320312 35.28125 58.566406 36.621094 58.570312 C 37.84375 58.585938 39.007812 58.335938 40.117188 57.820312 C 43.300781 56.300781 62.085938 45.972656 62.890625 45.535156 C 63.027344 45.460938 63.128906 45.347656 63.191406 45.203125 C 63.238281 45.085938 64.4375 42.3125 63.203125 40.457031 Z M 43.085938 14.820312 L 43.085938 28.550781 L 39.101562 25.089844 C 38.96875 24.972656 38.816406 24.917969 38.640625 24.917969 C 38.46875 24.917969 38.316406 24.972656 38.183594 25.089844 L 34.195312 28.550781 L 34.195312 14.820312 Z M 23.378906 17.058594 C 23.378906 16.761719 23.433594 16.476562 23.546875 16.203125 C 23.660156 15.925781 23.824219 15.683594 24.03125 15.476562 C 24.242188 15.265625 24.484375 15.105469 24.757812 14.992188 C 25.03125 14.875 25.320312 14.820312 25.613281 14.820312 L 32.792969 14.820312 L 32.792969 30.085938 C 32.792969 30.386719 32.929688 30.597656 33.203125 30.722656 C 33.472656 30.847656 33.722656 30.808594 33.949219 30.613281 L 38.636719 26.542969 L 43.320312 30.613281 C 43.546875 30.808594 43.796875 30.847656 44.070312 30.722656 C 44.34375 30.597656 44.480469 30.386719 44.480469 30.085938 L 44.480469 14.820312 L 51.664062 14.820312 C 51.960938 14.820312 52.246094 14.875 52.519531 14.988281 C 52.796875 15.105469 53.039062 15.265625 53.246094 15.476562 C 53.457031 15.683594 53.617188 15.925781 53.730469 16.203125 C 53.84375 16.476562 53.902344 16.761719 53.902344 17.058594 L 53.902344 41.210938 L 45.328125 44.75 C 45.21875 42.433594 42.976562 40.761719 42.863281 40.679688 C 42.738281 40.589844 42.601562 40.542969 42.449219 40.542969 L 32.589844 40.542969 L 23.84375 36.917969 C 23.757812 36.882812 23.667969 36.863281 23.578125 36.863281 L 23.378906 36.863281 Z M 16.527344 55.613281 L 8.867188 55.613281 L 8.867188 35.125 L 16.527344 35.125 Z M 61.992188 44.429688 C 59.832031 45.621094 42.480469 55.144531 39.507812 56.558594 C 36.636719 57.929688 33.316406 56.558594 33.261719 56.539062 L 23.824219 52.953125 C 23.746094 52.921875 23.664062 52.90625 23.578125 52.90625 L 17.925781 52.90625 L 17.925781 38.261719 L 23.4375 38.261719 L 32.183594 41.890625 C 32.269531 41.925781 32.359375 41.941406 32.453125 41.941406 L 42.207031 41.941406 C 42.746094 42.394531 44.363281 43.933594 43.820312 45.640625 C 43.804688 45.695312 43.796875 45.746094 43.792969 45.800781 C 43.765625 45.835938 43.738281 45.875 43.714844 45.914062 C 43.363281 46.609375 42.867188 47.179688 42.222656 47.621094 L 33.011719 47.621094 C 32.820312 47.621094 32.65625 47.691406 32.519531 47.824219 C 32.382812 47.960938 32.3125 48.128906 32.3125 48.320312 C 32.3125 48.515625 32.382812 48.679688 32.519531 48.816406 C 32.65625 48.953125 32.820312 49.019531 33.011719 49.019531 L 42.449219 49.019531 C 42.597656 49.019531 42.734375 48.976562 42.855469 48.890625 C 43.789062 48.28125 44.503906 47.476562 44.996094 46.476562 C 45.003906 46.449219 45.007812 46.421875 45.011719 46.394531 L 59.671875 40.339844 C 60.851562 40.339844 61.648438 40.640625 62.039062 41.230469 C 62.644531 42.136719 62.265625 43.6875 61.992188 44.429688 Z M 61.992188 44.429688 " clip-rule="nonzero"/></clipPath></defs><g clip-path="url(#8defdc9eb2)"><g clip-path="url(#1615b9a919)"><path fill="#000000" d="M 7.5 13.421875 L 7.5 58.40625 L 64.4375 58.40625 L 64.4375 13.421875 Z M 7.5 13.421875 " fill-opacity="1" fill-rule="nonzero"/></g></g></svg>