<svg xmlns="http://www.w3.org/2000/svg" xmlns:xlink="http://www.w3.org/1999/xlink" width="96" zoomAndPan="magnify" viewBox="0 0 72 72" height="96" preserveAspectRatio="xMidYMid meet" version="1.0"><defs><clipPath id="f407507829"><path d="M 18 7.5 L 26 7.5 L 26 52 L 18 52 Z M 18 7.5 " clip-rule="nonzero"/></clipPath><clipPath id="1f80b78925"><path d="M 13.839844 53 L 26 53 L 26 64.5 L 13.839844 64.5 Z M 13.839844 53 " clip-rule="nonzero"/></clipPath></defs><path fill="#000000" d="M 46.328125 22.035156 L 46.328125 28.257812 C 46.328125 28.257812 54.230469 33.328125 54.304688 39.398438 L 54.304688 43.78125 C 54.304688 43.78125 38.347656 46.460938 36.582031 40.859375 C 36.582031 40.859375 33.972656 50.460938 39.421875 50.925781 C 44.871094 51.386719 54.304688 50.925781 54.304688 50.925781 C 54.304688 50.925781 58.066406 51.308594 57.527344 44.085938 C 56.992188 36.867188 54.691406 27.335938 46.328125 22.035156 Z M 46.328125 22.035156 " fill-opacity="1" fill-rule="nonzero"/><g clip-path="url(#f407507829)"><path fill="#000000" d="M 22.691406 7.820312 C 22.804688 7.496094 16.550781 11.125 18.625 22.035156 C 20.699219 32.945312 22.015625 48.621094 20.433594 51.847656 C 20.433594 51.847656 25.375 49.234375 25.453125 43.855469 C 25.53125 38.476562 21.847656 10.277344 22.691406 7.820312 Z M 22.691406 7.820312 " fill-opacity="1" fill-rule="nonzero"/></g><g clip-path="url(#1f80b78925)"><path fill="#000000" d="M 16.859375 61.605469 L 13.867188 64.484375 L 24.417969 61.296875 L 25.222656 59.6875 C 25.222656 59.6875 20.929688 61.457031 19.007812 59.6875 C 17.089844 57.921875 17.515625 56.382812 20.121094 57.152344 C 22.730469 57.921875 23.460938 55.464844 21.828125 53.847656 C 20.199219 52.234375 14.867188 56.117188 14.828125 57.804688 C 14.789062 59.496094 15.59375 60.996094 16.859375 61.605469 Z M 16.859375 61.605469 " fill-opacity="1" fill-rule="nonzero"/></g><path fill="#000000" d="M 29.246094 51.847656 L 34.398438 51.847656 C 34.558594 51.847656 34.691406 51.902344 34.804688 52.015625 C 34.914062 52.125 34.96875 52.257812 34.96875 52.417969 L 34.96875 56.578125 C 34.96875 56.734375 34.914062 56.871094 34.804688 56.980469 C 34.691406 57.09375 34.558594 57.148438 34.398438 57.148438 L 29.246094 57.148438 C 29.089844 57.148438 28.957031 57.09375 28.84375 56.980469 C 28.734375 56.871094 28.675781 56.734375 28.675781 56.578125 L 28.675781 52.417969 C 28.675781 52.257812 28.734375 52.125 28.84375 52.015625 C 28.957031 51.902344 29.089844 51.847656 29.246094 51.847656 Z M 29.246094 51.847656 " fill-opacity="1" fill-rule="nonzero"/></svg>