<svg xmlns="http://www.w3.org/2000/svg" xmlns:xlink="http://www.w3.org/1999/xlink" width="96" zoomAndPan="magnify" viewBox="0 0 72 72" height="96" preserveAspectRatio="xMidYMid meet" version="1.0"><defs><clipPath id="66a7901d7c"><path d="M 7.5 27 L 19 27 L 19 30 L 7.5 30 Z M 7.5 27 " clip-rule="nonzero"/></clipPath><clipPath id="c5ba1cf831"><path d="M 44 25 L 64.5 25 L 64.5 49 L 44 49 Z M 44 25 " clip-rule="nonzero"/></clipPath><clipPath id="c19c563e4a"><path d="M 16 17.8125 L 46 17.8125 L 46 45 L 16 45 Z M 16 17.8125 " clip-rule="nonzero"/></clipPath><clipPath id="b6d3e20c1b"><path d="M 47 41 L 60 41 L 60 54.5625 L 47 54.5625 Z M 47 41 " clip-rule="nonzero"/></clipPath><clipPath id="942a4a3a8a"><path d="M 52 29 L 64.5 29 L 64.5 40 L 52 40 Z M 52 29 " clip-rule="nonzero"/></clipPath></defs><g clip-path="url(#66a7901d7c)"><path fill="#000000" d="M 17.640625 29.667969 L 8.386719 29.667969 C 7.90625 29.667969 7.519531 29.28125 7.519531 28.800781 C 7.519531 28.320312 7.90625 27.933594 8.386719 27.933594 L 17.640625 27.933594 C 18.117188 27.933594 18.507812 28.320312 18.507812 28.800781 C 18.507812 29.28125 18.117188 29.667969 17.640625 29.667969 Z M 17.640625 29.667969 " fill-opacity="1" fill-rule="nonzero"/></g><path fill="#000000" d="M 17.640625 34.292969 L 11.855469 34.292969 C 11.375 34.292969 10.988281 33.90625 10.988281 33.425781 C 10.988281 32.945312 11.375 32.558594 11.855469 32.558594 L 17.640625 32.558594 C 18.117188 32.558594 18.507812 32.945312 18.507812 33.425781 C 18.507812 33.90625 18.117188 34.292969 17.640625 34.292969 Z M 17.640625 34.292969 " fill-opacity="1" fill-rule="nonzero"/><path fill="#000000" d="M 17.640625 38.917969 L 15.324219 38.917969 C 14.847656 38.917969 14.457031 38.53125 14.457031 38.050781 C 14.457031 37.574219 14.847656 37.183594 15.324219 37.183594 L 17.640625 37.183594 C 18.117188 37.183594 18.507812 37.574219 18.507812 38.050781 C 18.507812 38.53125 18.117188 38.917969 17.640625 38.917969 Z M 17.640625 38.917969 " fill-opacity="1" fill-rule="nonzero"/><g clip-path="url(#c5ba1cf831)"><path fill="#000000" d="M 61.277344 48.613281 L 58.976562 48.613281 C 58.496094 48.613281 58.109375 48.222656 58.109375 47.746094 C 58.109375 47.265625 58.496094 46.878906 58.976562 46.878906 L 61.277344 46.878906 C 62.085938 46.878906 62.746094 46.21875 62.746094 45.410156 L 62.746094 39.566406 C 62.746094 38.140625 62.230469 36.75 61.304688 35.667969 L 55.550781 28.957031 C 54.597656 27.839844 53.210938 27.203125 51.742188 27.203125 L 45.136719 27.203125 C 44.65625 27.203125 44.269531 26.816406 44.269531 26.335938 C 44.269531 25.855469 44.65625 25.46875 45.136719 25.46875 L 51.742188 25.46875 C 53.71875 25.46875 55.585938 26.332031 56.871094 27.828125 L 62.625 34.542969 C 63.820312 35.941406 64.488281 37.726562 64.488281 39.566406 L 64.488281 45.410156 C 64.488281 47.171875 63.054688 48.613281 61.285156 48.613281 Z M 61.277344 48.613281 " fill-opacity="1" fill-rule="nonzero"/></g><path fill="#000000" d="M 47.761719 48.613281 L 36.15625 48.613281 C 35.675781 48.613281 35.289062 48.222656 35.289062 47.746094 C 35.289062 47.265625 35.675781 46.878906 36.15625 46.878906 L 47.761719 46.878906 C 48.242188 46.878906 48.628906 47.265625 48.628906 47.746094 C 48.628906 48.222656 48.242188 48.613281 47.761719 48.613281 Z M 47.761719 48.613281 " fill-opacity="1" fill-rule="nonzero"/><path fill="#000000" d="M 24.925781 48.613281 L 20.613281 48.613281 C 18.386719 48.613281 16.574219 46.800781 16.574219 44.574219 L 16.574219 41.464844 C 16.574219 40.984375 16.960938 40.597656 17.441406 40.597656 C 17.921875 40.597656 18.308594 40.984375 18.308594 41.464844 L 18.308594 44.574219 C 18.308594 45.847656 19.34375 46.878906 20.613281 46.878906 L 24.925781 46.878906 C 25.40625 46.878906 25.792969 47.265625 25.792969 47.746094 C 25.792969 48.222656 25.40625 48.613281 24.925781 48.613281 Z M 24.925781 48.613281 " fill-opacity="1" fill-rule="nonzero"/><g clip-path="url(#c19c563e4a)"><path fill="#000000" d="M 44.675781 44.125 C 44.195312 44.125 43.808594 43.738281 43.808594 43.257812 L 43.808594 21.847656 C 43.808594 20.574219 42.773438 19.546875 41.503906 19.546875 L 20.605469 19.546875 C 19.332031 19.546875 18.304688 20.582031 18.304688 21.847656 L 18.304688 25.46875 C 18.304688 25.949219 17.917969 26.335938 17.4375 26.335938 C 16.957031 26.335938 16.570312 25.949219 16.570312 25.46875 L 16.570312 21.847656 C 16.570312 19.621094 18.378906 17.8125 20.605469 17.8125 L 41.5 17.8125 C 43.726562 17.8125 45.535156 19.621094 45.535156 21.847656 L 45.535156 43.257812 C 45.535156 43.738281 45.148438 44.125 44.667969 44.125 Z M 44.675781 44.125 " fill-opacity="1" fill-rule="nonzero"/></g><path fill="#000000" d="M 30.441406 53.996094 C 27.054688 53.996094 24.300781 51.242188 24.300781 47.855469 C 24.300781 44.464844 27.054688 41.714844 30.441406 41.714844 C 33.832031 41.714844 36.585938 44.464844 36.585938 47.855469 C 36.585938 51.242188 33.832031 53.996094 30.441406 53.996094 Z M 30.441406 43.449219 C 28.015625 43.449219 26.035156 45.425781 26.035156 47.855469 C 26.035156 50.285156 28.015625 52.261719 30.441406 52.261719 C 32.871094 52.261719 34.847656 50.285156 34.847656 47.855469 C 34.847656 45.425781 32.871094 43.449219 30.441406 43.449219 Z M 30.441406 43.449219 " fill-opacity="1" fill-rule="nonzero"/><g clip-path="url(#b6d3e20c1b)"><path fill="#000000" d="M 53.332031 54.179688 C 49.941406 54.179688 47.191406 51.429688 47.191406 48.039062 C 47.191406 44.652344 49.941406 41.898438 53.332031 41.898438 C 56.71875 41.898438 59.472656 44.652344 59.472656 48.039062 C 59.472656 51.429688 56.71875 54.179688 53.332031 54.179688 Z M 53.332031 43.632812 C 50.902344 43.632812 48.925781 45.609375 48.925781 48.039062 C 48.925781 50.46875 50.902344 52.445312 53.332031 52.445312 C 55.761719 52.445312 57.738281 50.46875 57.738281 48.039062 C 57.738281 45.609375 55.761719 43.632812 53.332031 43.632812 Z M 53.332031 43.632812 " fill-opacity="1" fill-rule="nonzero"/></g><g clip-path="url(#942a4a3a8a)"><path fill="#000000" d="M 63.476562 39.074219 L 55.996094 39.074219 C 54.203125 39.074219 52.746094 37.617188 52.746094 35.824219 L 52.746094 30.625 C 52.746094 30.148438 53.136719 29.757812 53.613281 29.757812 C 54.09375 29.757812 54.484375 30.148438 54.484375 30.625 L 54.484375 35.824219 C 54.484375 36.660156 55.160156 37.339844 55.996094 37.339844 L 63.476562 37.339844 C 63.953125 37.339844 64.34375 37.726562 64.34375 38.207031 C 64.34375 38.6875 63.953125 39.074219 63.476562 39.074219 Z M 63.476562 39.074219 " fill-opacity="1" fill-rule="nonzero"/></g></svg>