<svg width="15" height="15" viewBox="0 0 15 15" fill="none" xmlns="http://www.w3.org/2000/svg">
<path d="M13.3748 4.75601L5.38853 12.7423C4.59324 13.5375 2.23249 13.9059 1.70509 13.3785C1.17769 12.8511 1.53766 10.4904 2.33295 9.69508L10.3276 1.70043C10.5248 1.48533 10.7635 1.31243 11.0293 1.19213C11.2951 1.07184 11.5826 1.00662 11.8743 1.00048C12.166 0.994342 12.456 1.04737 12.7266 1.15637C12.9973 1.26537 13.2431 1.42811 13.4491 1.63472C13.6551 1.84132 13.8172 2.08753 13.9254 2.35848C14.0337 2.62943 14.086 2.9195 14.079 3.2112C14.0721 3.5029 14.006 3.7902 13.8851 4.0557C13.764 4.3212 13.5905 4.55944 13.3748 4.75601Z" stroke="#FF7700" stroke-width="1.25571" stroke-linecap="round" stroke-linejoin="round"/>
</svg>
