<svg xmlns="http://www.w3.org/2000/svg" xmlns:xlink="http://www.w3.org/1999/xlink" width="96" zoomAndPan="magnify" viewBox="0 0 72 72" height="96" preserveAspectRatio="xMidYMid meet" version="1.0"><defs><clipPath id="3d8cc8f3f8"><path d="M 7.5 15 L 64.5 15 L 64.5 56.875 L 7.5 56.875 Z M 7.5 15 " clip-rule="nonzero"/></clipPath></defs><path fill="#000000" d="M 20.445312 49.777344 L 12.5625 47.726562 C 12.277344 47.648438 11.996094 47.820312 11.921875 48.097656 C 11.847656 48.378906 12.015625 48.664062 12.296875 48.734375 L 20.179688 50.785156 C 20.222656 50.800781 20.269531 50.804688 20.3125 50.804688 C 20.546875 50.804688 20.757812 50.648438 20.820312 50.414062 C 20.894531 50.132812 20.726562 49.847656 20.445312 49.777344 Z M 20.445312 49.777344 " fill-opacity="1" fill-rule="nonzero"/><path fill="#000000" d="M 22.429688 50.230469 L 21.839844 50.074219 C 21.554688 50 21.273438 50.167969 21.199219 50.445312 C 21.125 50.726562 21.292969 51.011719 21.574219 51.085938 L 22.164062 51.238281 C 22.210938 51.25 22.253906 51.257812 22.296875 51.257812 C 22.53125 51.257812 22.746094 51.101562 22.804688 50.867188 C 22.878906 50.585938 22.710938 50.300781 22.429688 50.230469 Z M 22.429688 50.230469 " fill-opacity="1" fill-rule="nonzero"/><path fill="#000000" d="M 33.296875 47.378906 L 25.128906 49.386719 C 24.847656 49.457031 24.675781 49.742188 24.746094 50.019531 C 24.804688 50.257812 25.019531 50.417969 25.253906 50.417969 C 25.296875 50.417969 25.339844 50.414062 25.382812 50.402344 L 33.550781 48.394531 C 33.832031 48.324219 34.003906 48.042969 33.933594 47.761719 C 33.863281 47.480469 33.582031 47.304688 33.296875 47.378906 Z M 33.296875 47.378906 " fill-opacity="1" fill-rule="nonzero"/><path fill="#000000" d="M 29.597656 49.679688 L 25.128906 50.78125 C 24.847656 50.847656 24.675781 51.132812 24.746094 51.410156 C 24.804688 51.652344 25.019531 51.808594 25.253906 51.808594 C 25.296875 51.808594 25.339844 51.804688 25.382812 51.792969 L 29.847656 50.695312 C 30.128906 50.625 30.304688 50.34375 30.234375 50.0625 C 30.164062 49.78125 29.878906 49.609375 29.597656 49.679688 Z M 29.597656 49.679688 " fill-opacity="1" fill-rule="nonzero"/><g clip-path="url(#3d8cc8f3f8)"><path fill="#000000" d="M 63.960938 15.171875 L 32.511719 15.171875 C 32.21875 15.171875 31.984375 15.40625 31.984375 15.695312 L 31.984375 36.570312 L 24.050781 34.195312 C 23.9375 34.160156 23.816406 34.1875 23.707031 34.234375 L 10.851562 38.085938 C 10.835938 38.085938 10.820312 38.085938 10.804688 38.085938 C 10.78125 38.085938 10.761719 38.097656 10.734375 38.101562 C 10.703125 38.109375 10.667969 38.113281 10.640625 38.125 C 10.566406 38.15625 10.496094 38.199219 10.4375 38.261719 L 7.644531 41.425781 C 7.527344 41.554688 7.484375 41.734375 7.53125 41.902344 C 7.574219 42.070312 7.699219 42.207031 7.867188 42.265625 L 10.308594 43.109375 L 10.308594 49.523438 C 10.308594 49.730469 10.46875 49.9375 10.660156 50.019531 C 10.691406 50.035156 10.730469 50.046875 10.773438 50.054688 L 23.746094 53.933594 C 23.796875 53.949219 23.847656 53.953125 23.898438 53.953125 C 23.949219 53.953125 24 53.945312 24.050781 53.933594 L 31.984375 51.558594 L 31.984375 56.054688 C 31.984375 56.34375 32.21875 56.578125 32.511719 56.578125 L 63.960938 56.578125 C 64.25 56.578125 64.488281 56.34375 64.488281 56.054688 L 64.488281 15.695312 C 64.488281 15.40625 64.25 15.171875 63.960938 15.171875 Z M 28.59375 45.082031 L 25.101562 42.695312 L 36.789062 39.199219 L 38.847656 41.53125 Z M 24.425781 41.808594 L 24.425781 35.398438 L 35.136719 38.601562 Z M 23.371094 41.808594 L 12.710938 38.621094 L 23.371094 35.425781 Z M 11.007812 39.203125 L 22.695312 42.695312 L 19.203125 45.078125 L 8.949219 41.53125 L 11.007812 39.199219 Z M 11.359375 45.414062 L 11.359375 43.472656 L 19.109375 46.15625 C 19.167969 46.175781 19.222656 46.183594 19.28125 46.183594 C 19.386719 46.183594 19.492188 46.152344 19.582031 46.089844 L 23.375 43.496094 L 23.371094 45.644531 L 23.371094 52.726562 L 11.359375 49.136719 Z M 24.425781 45.648438 L 24.429688 43.503906 L 28.21875 46.09375 C 28.304688 46.152344 28.410156 46.183594 28.515625 46.183594 C 28.574219 46.183594 28.632812 46.175781 28.6875 46.15625 L 36.4375 43.476562 L 36.4375 49.136719 L 24.425781 52.730469 Z M 63.4375 55.53125 L 33.035156 55.53125 L 33.035156 51.246094 L 37.113281 50.027344 C 37.335938 49.960938 37.488281 49.757812 37.488281 49.527344 L 37.488281 43.109375 L 39.933594 42.265625 C 40.097656 42.207031 40.222656 42.070312 40.269531 41.902344 C 40.3125 41.734375 40.269531 41.554688 40.15625 41.425781 L 37.359375 38.261719 C 37.351562 38.25 37.335938 38.246094 37.328125 38.234375 C 37.304688 38.214844 37.28125 38.195312 37.253906 38.175781 C 37.234375 38.164062 37.21875 38.148438 37.199219 38.136719 C 37.183594 38.128906 37.171875 38.128906 37.15625 38.125 C 37.140625 38.117188 37.128906 38.105469 37.113281 38.101562 L 33.035156 36.882812 L 33.035156 16.21875 L 63.4375 16.21875 Z M 63.4375 55.53125 " fill-opacity="1" fill-rule="nonzero"/></g><path fill="#000000" d="M 36.390625 22.179688 L 45.882812 22.179688 C 46.171875 22.179688 46.410156 21.945312 46.410156 21.660156 C 46.410156 21.371094 46.171875 21.136719 45.882812 21.136719 L 36.390625 21.136719 C 36.101562 21.136719 35.867188 21.371094 35.867188 21.660156 C 35.867188 21.945312 36.101562 22.179688 36.390625 22.179688 Z M 36.390625 22.179688 " fill-opacity="1" fill-rule="nonzero"/><path fill="#000000" d="M 36.390625 24.988281 L 60.632812 24.988281 C 60.925781 24.988281 61.160156 24.753906 61.160156 24.464844 C 61.160156 24.175781 60.925781 23.941406 60.632812 23.941406 L 36.390625 23.941406 C 36.101562 23.941406 35.867188 24.175781 35.867188 24.464844 C 35.867188 24.753906 36.101562 24.988281 36.390625 24.988281 Z M 36.390625 24.988281 " fill-opacity="1" fill-rule="nonzero"/><path fill="#000000" d="M 36.390625 27.792969 L 60.632812 27.792969 C 60.925781 27.792969 61.160156 27.558594 61.160156 27.269531 C 61.160156 26.980469 60.925781 26.746094 60.632812 26.746094 L 36.390625 26.746094 C 36.101562 26.746094 35.867188 26.980469 35.867188 27.269531 C 35.867188 27.558594 36.101562 27.792969 36.390625 27.792969 Z M 36.390625 27.792969 " fill-opacity="1" fill-rule="nonzero"/><path fill="#000000" d="M 36.390625 30.597656 L 60.632812 30.597656 C 60.925781 30.597656 61.160156 30.363281 61.160156 30.074219 C 61.160156 29.785156 60.925781 29.550781 60.632812 29.550781 L 36.390625 29.550781 C 36.101562 29.550781 35.867188 29.785156 35.867188 30.074219 C 35.867188 30.363281 36.101562 30.597656 36.390625 30.597656 Z M 36.390625 30.597656 " fill-opacity="1" fill-rule="nonzero"/><path fill="#000000" d="M 36.390625 33.402344 L 60.632812 33.402344 C 60.925781 33.402344 61.160156 33.167969 61.160156 32.878906 C 61.160156 32.589844 60.925781 32.355469 60.632812 32.355469 L 36.390625 32.355469 C 36.101562 32.355469 35.867188 32.589844 35.867188 32.878906 C 35.867188 33.167969 36.101562 33.402344 36.390625 33.402344 Z M 36.390625 33.402344 " fill-opacity="1" fill-rule="nonzero"/><path fill="#000000" d="M 36.390625 36.207031 L 60.632812 36.207031 C 60.925781 36.207031 61.160156 35.972656 61.160156 35.683594 C 61.160156 35.398438 60.925781 35.164062 60.632812 35.164062 L 36.390625 35.164062 C 36.101562 35.164062 35.867188 35.398438 35.867188 35.683594 C 35.867188 35.972656 36.101562 36.207031 36.390625 36.207031 Z M 36.390625 36.207031 " fill-opacity="1" fill-rule="nonzero"/><path fill="#000000" d="M 58.980469 39.292969 C 58.304688 38.796875 57.273438 38.957031 56.777344 39.628906 L 52.3125 45.675781 L 50.90625 42.949219 C 50.519531 42.203125 49.535156 41.890625 48.78125 42.269531 C 48.007812 42.664062 47.703125 43.613281 48.097656 44.382812 L 50.671875 49.367188 C 50.921875 49.847656 51.410156 50.171875 51.953125 50.214844 C 51.96875 50.214844 52.0625 50.21875 52.078125 50.21875 C 52.578125 50.21875 53.050781 49.980469 53.347656 49.582031 L 59.320312 41.488281 C 59.832031 40.789062 59.683594 39.804688 58.980469 39.292969 Z M 58.472656 40.863281 L 52.5 48.957031 C 52.402344 49.09375 52.242188 49.171875 52.078125 49.171875 L 52.078125 49.695312 L 52.035156 49.171875 C 51.855469 49.15625 51.691406 49.046875 51.609375 48.886719 L 49.035156 43.902344 C 48.902344 43.644531 49.003906 43.328125 49.261719 43.199219 C 49.335938 43.160156 49.417969 43.140625 49.503906 43.140625 C 49.699219 43.140625 49.878906 43.25 49.972656 43.421875 L 51.769531 46.902344 C 51.851562 47.0625 52.011719 47.171875 52.195312 47.183594 C 52.386719 47.195312 52.550781 47.117188 52.660156 46.972656 L 57.625 40.246094 C 57.789062 40.015625 58.132812 39.964844 58.359375 40.132812 C 58.59375 40.300781 58.644531 40.628906 58.472656 40.863281 Z M 58.472656 40.863281 " fill-opacity="1" fill-rule="nonzero"/></svg>