<svg width="56" height="56" viewBox="0 0 56 56" fill="none" xmlns="http://www.w3.org/2000/svg">
<circle cx="28" cy="28" r="28" fill="#FFCFA9"/>
<path d="M32.5443 31.2554L31.9623 31.8681C31.9623 31.8681 30.5789 33.3245 26.8031 29.3492C23.0273 25.3739 24.4106 23.9176 24.4106 23.9176L24.7771 23.5318C25.6799 22.5813 25.765 21.0552 24.9773 19.9412L23.3661 17.6623C22.3912 16.2834 20.5073 16.1013 19.3899 17.2777L17.3843 19.3892C16.8302 19.9726 16.4589 20.7287 16.5039 21.5676C16.6191 23.7136 17.5361 28.3309 22.6532 33.7183C28.0796 39.4313 33.1712 39.6583 35.2533 39.4529C35.9119 39.3878 36.4846 39.0327 36.9461 38.5468L38.7613 36.6357C39.9866 35.3458 39.6411 33.1344 38.0734 32.232L35.6322 30.8268C34.6028 30.2343 33.3488 30.4084 32.5443 31.2554Z" fill="#FF7700"/>
</svg>
