<svg width="19" height="19" viewBox="0 0 19 19" fill="none" xmlns="http://www.w3.org/2000/svg">
<path d="M3.95898 12.6667C3.95898 12.2294 4.31343 11.875 4.75065 11.875H6.33398C6.77121 11.875 7.12565 12.2294 7.12565 12.6667C7.12565 13.1039 6.77121 13.4583 6.33398 13.4583H4.75065C4.31343 13.4583 3.95898 13.1039 3.95898 12.6667Z" fill="black"/>
<path d="M8.70768 11.875C8.27044 11.875 7.91602 12.2294 7.91602 12.6667C7.91602 13.1039 8.27044 13.4583 8.70768 13.4583H9.49935C9.93659 13.4583 10.291 13.1039 10.291 12.6667C10.291 12.2294 9.93659 11.875 9.49935 11.875H8.70768Z" fill="black"/>
<path fill-rule="evenodd" clip-rule="evenodd" d="M5.37318 2.375C4.72519 2.37499 4.19038 2.37498 3.75496 2.41114C3.30264 2.4487 2.88714 2.52934 2.49793 2.73153C1.91956 3.03196 1.44798 3.50354 1.14754 4.08191C0.945359 4.47113 0.86472 4.88663 0.827156 5.33894C0.790998 5.77436 0.791006 6.30916 0.791016 6.95715V12.0428C0.791006 12.6908 0.790998 13.2257 0.827156 13.6611C0.86472 14.1134 0.945359 14.5289 1.14754 14.9181C1.44798 15.4965 1.91956 15.9681 2.49793 16.2685C2.88714 16.4706 3.30264 16.5513 3.75496 16.5889C4.19039 16.625 4.7252 16.625 5.37321 16.625H13.6255C14.2735 16.625 14.8083 16.625 15.2438 16.5889C15.696 16.5513 16.1116 16.4706 16.5008 16.2685C17.0792 15.9681 17.5508 15.4965 17.8512 14.9181C18.0533 14.5289 18.134 14.1134 18.1716 13.6611C18.2077 13.2257 18.2077 12.6908 18.2077 12.0428V6.95718C18.2077 6.30918 18.2077 5.77437 18.1716 5.33894C18.134 4.88663 18.0533 4.47113 17.8512 4.08191C17.5508 3.50354 17.0792 3.03196 16.5008 2.73153C16.1116 2.52934 15.696 2.4487 15.2438 2.41114C14.8083 2.37498 14.2735 2.37499 13.6255 2.375H5.37318ZM3.22781 4.13659C3.35335 4.07138 3.53337 4.01833 3.886 3.98904C4.24811 3.95897 4.71688 3.95833 5.40643 3.95833H13.5923C14.2818 3.95833 14.7506 3.95897 15.1127 3.98904C15.4654 4.01833 15.6454 4.07138 15.7709 4.13659C16.0601 4.28682 16.2959 4.52261 16.4461 4.81179C16.5113 4.93733 16.5643 5.11735 16.5936 5.46998C16.613 5.70331 16.6202 5.98092 16.6228 6.33333H2.37589C2.37853 5.98092 2.38568 5.70331 2.40506 5.46998C2.43434 5.11735 2.4874 4.93733 2.55261 4.81179C2.70284 4.52261 2.93863 4.28682 3.22781 4.13659ZM2.37435 7.91667V12.0096C2.37435 12.6991 2.37499 13.1679 2.40506 13.5301C2.43434 13.8827 2.4874 14.0627 2.55261 14.1883C2.70284 14.4774 2.93863 14.7132 3.22781 14.8634C3.35335 14.9286 3.53337 14.9817 3.886 15.011C4.24811 15.041 4.71688 15.0417 5.40643 15.0417H13.5923C14.2818 15.0417 14.7506 15.041 15.1127 15.011C15.4654 14.9817 15.6454 14.9286 15.7709 14.8634C16.0601 14.7132 16.2959 14.4774 16.4461 14.1883C16.5113 14.0627 16.5643 13.8827 16.5936 13.5301C16.6237 13.1679 16.6244 12.6991 16.6244 12.0096V7.91667H2.37435Z" fill="black"/>
</svg>
