<svg xmlns="http://www.w3.org/2000/svg" xmlns:xlink="http://www.w3.org/1999/xlink" width="96" zoomAndPan="magnify" viewBox="0 0 72 72" height="96" preserveAspectRatio="xMidYMid meet" version="1.0"><defs><clipPath id="4cd103ec0a"><path d="M 11.5625 7.5 L 60.3125 7.5 L 60.3125 64.5 L 11.5625 64.5 Z M 11.5625 7.5 " clip-rule="nonzero"/></clipPath></defs><g clip-path="url(#4cd103ec0a)"><path fill="#000000" d="M 60.152344 41.128906 L 55.8125 33.59375 C 55.710938 33.417969 55.554688 33.28125 55.363281 33.207031 L 46.199219 29.636719 C 46.484375 28.667969 46.636719 27.648438 46.636719 26.59375 C 46.636719 20.675781 41.835938 15.863281 35.9375 15.863281 C 30.035156 15.863281 25.234375 20.675781 25.234375 26.59375 C 25.234375 27.648438 25.386719 28.667969 25.671875 29.636719 L 16.507812 33.207031 C 16.320312 33.28125 16.160156 33.417969 16.058594 33.59375 L 11.71875 41.128906 C 11.589844 41.355469 11.5625 41.625 11.648438 41.871094 C 11.734375 42.117188 11.925781 42.3125 12.167969 42.40625 L 15.941406 43.878906 L 15.941406 56.152344 C 15.941406 56.523438 16.164062 56.851562 16.507812 56.984375 L 35.613281 64.433594 C 35.71875 64.472656 35.828125 64.492188 35.9375 64.492188 C 36.046875 64.492188 36.15625 64.472656 36.257812 64.433594 L 55.363281 56.984375 C 55.707031 56.851562 55.933594 56.523438 55.933594 56.152344 L 55.933594 43.878906 L 59.707031 42.40625 C 59.949219 42.3125 60.136719 42.117188 60.222656 41.871094 C 60.308594 41.625 60.285156 41.355469 60.152344 41.128906 Z M 35.9375 17.648438 C 40.855469 17.648438 44.859375 21.660156 44.859375 26.59375 C 44.859375 31.523438 40.855469 35.535156 35.9375 35.535156 C 31.015625 35.535156 27.015625 31.523438 27.015625 26.59375 C 27.015625 21.660156 31.015625 17.648438 35.9375 17.648438 Z M 35.9375 37.320312 C 40.175781 37.320312 43.847656 34.835938 45.582031 31.242188 L 52.605469 34.03125 L 35.9375 40.527344 L 19.269531 34.03125 L 26.292969 31.242188 C 28.023438 34.835938 31.695312 37.320312 35.9375 37.320312 Z M 13.777344 41.121094 L 17.21875 35.148438 L 34.648438 41.941406 L 31.207031 47.914062 Z M 17.71875 44.570312 L 31.273438 49.855469 C 31.683594 50.011719 32.144531 49.851562 32.367188 49.46875 L 35.046875 44.816406 L 35.046875 62.296875 L 17.71875 55.542969 Z M 54.152344 55.542969 L 36.828125 62.296875 L 36.828125 44.816406 L 39.507812 49.46875 C 39.726562 49.851562 40.191406 50.011719 40.601562 49.855469 L 54.152344 44.570312 Z M 40.667969 47.914062 L 37.226562 41.941406 L 54.652344 35.148438 L 58.09375 41.121094 Z M 33.722656 32.386719 C 34.339844 32.386719 34.917969 32.144531 35.355469 31.707031 L 42.292969 24.753906 C 43.195312 23.851562 43.195312 22.378906 42.292969 21.476562 C 41.855469 21.039062 41.273438 20.796875 40.65625 20.796875 C 40.039062 20.796875 39.460938 21.039062 39.023438 21.476562 L 33.914062 26.59375 L 32.550781 24.875 C 32.113281 24.320312 31.453125 24 30.742188 24 C 30.222656 24 29.714844 24.179688 29.308594 24.503906 C 28.308594 25.296875 28.144531 26.757812 28.9375 27.757812 L 31.839844 31.421875 C 32.273438 32.027344 32.976562 32.386719 33.722656 32.386719 Z M 30.414062 25.902344 C 30.535156 25.804688 30.660156 25.785156 30.742188 25.785156 C 30.90625 25.785156 31.058594 25.859375 31.160156 25.984375 L 33.140625 28.488281 C 33.300781 28.6875 33.535156 28.808594 33.789062 28.824219 C 34.039062 28.839844 34.289062 28.742188 34.46875 28.5625 L 40.28125 22.738281 C 40.382812 22.636719 40.515625 22.582031 40.65625 22.582031 C 40.800781 22.582031 40.933594 22.636719 41.035156 22.738281 C 41.242188 22.945312 41.242188 23.285156 41.035156 23.492188 L 34.097656 30.445312 C 33.96875 30.574219 33.820312 30.601562 33.722656 30.601562 C 33.542969 30.601562 33.382812 30.519531 33.28125 30.375 C 33.269531 30.359375 33.261719 30.34375 33.25 30.328125 L 30.328125 26.648438 C 30.148438 26.417969 30.1875 26.082031 30.414062 25.902344 Z M 35.046875 12.578125 L 35.046875 8.398438 C 35.046875 7.90625 35.445312 7.507812 35.9375 7.507812 C 36.429688 7.507812 36.828125 7.90625 36.828125 8.398438 L 36.828125 12.578125 C 36.828125 13.070312 36.429688 13.46875 35.9375 13.46875 C 35.445312 13.46875 35.046875 13.070312 35.046875 12.578125 Z M 26.058594 11.164062 C 25.8125 10.738281 25.960938 10.191406 26.386719 9.945312 C 26.8125 9.699219 27.355469 9.847656 27.601562 10.273438 L 29.683594 13.890625 C 29.929688 14.320312 29.785156 14.863281 29.359375 15.109375 C 29.21875 15.191406 29.066406 15.230469 28.914062 15.230469 C 28.609375 15.230469 28.308594 15.070312 28.144531 14.785156 Z M 19.332031 16.847656 C 19.578125 16.417969 20.121094 16.273438 20.546875 16.519531 L 24.15625 18.609375 C 24.582031 18.855469 24.726562 19.402344 24.480469 19.828125 C 24.316406 20.113281 24.019531 20.273438 23.710938 20.273438 C 23.558594 20.273438 23.40625 20.234375 23.265625 20.152344 L 19.65625 18.066406 C 19.230469 17.820312 19.085938 17.273438 19.332031 16.847656 Z M 16.664062 26.355469 C 16.664062 25.863281 17.0625 25.464844 17.554688 25.464844 L 21.722656 25.464844 C 22.214844 25.464844 22.609375 25.863281 22.609375 26.355469 C 22.609375 26.851562 22.214844 27.25 21.722656 27.25 L 17.554688 27.25 C 17.0625 27.25 16.664062 26.851562 16.664062 26.355469 Z M 42.125 14.125 L 44.207031 10.507812 C 44.453125 10.082031 45 9.933594 45.425781 10.179688 C 45.851562 10.425781 45.996094 10.972656 45.75 11.398438 L 43.664062 15.019531 C 43.5 15.304688 43.203125 15.464844 42.894531 15.464844 C 42.742188 15.464844 42.589844 15.425781 42.449219 15.34375 C 42.023438 15.097656 41.878906 14.554688 42.125 14.125 Z M 47.15625 20.234375 C 46.910156 19.808594 47.054688 19.261719 47.480469 19.015625 L 51.09375 16.925781 C 51.515625 16.679688 52.0625 16.828125 52.308594 17.253906 C 52.554688 17.679688 52.40625 18.226562 51.980469 18.472656 L 48.371094 20.5625 C 48.230469 20.640625 48.078125 20.679688 47.925781 20.679688 C 47.621094 20.679688 47.320312 20.519531 47.15625 20.234375 Z M 49.683594 25.933594 L 53.851562 25.933594 C 54.34375 25.933594 54.742188 26.332031 54.742188 26.828125 C 54.742188 27.320312 54.34375 27.71875 53.851562 27.71875 L 49.683594 27.71875 C 49.191406 27.71875 48.792969 27.320312 48.792969 26.828125 C 48.792969 26.335938 49.191406 25.933594 49.683594 25.933594 Z M 49.683594 25.933594 " fill-opacity="1" fill-rule="nonzero"/></g></svg>