<svg xmlns="http://www.w3.org/2000/svg" xmlns:xlink="http://www.w3.org/1999/xlink" width="96" zoomAndPan="magnify" viewBox="0 0 72 72" height="96" preserveAspectRatio="xMidYMid meet" version="1.0"><defs><clipPath id="a0a74433d4"><path d="M 7.5 8.25 L 64.5 8.25 L 64.5 53 L 7.5 53 Z M 7.5 8.25 " clip-rule="nonzero"/></clipPath><clipPath id="0b15d7318b"><path d="M 9 51 L 50 51 L 50 63.75 L 9 63.75 Z M 9 51 " clip-rule="nonzero"/></clipPath></defs><g clip-path="url(#a0a74433d4)"><path fill="#000000" d="M 63.480469 8.378906 L 58.398438 8.378906 C 56.117188 8.378906 54.148438 10.007812 53.722656 12.25 L 53.027344 15.855469 L 44.300781 15.855469 C 41.621094 11.3125 36.691406 8.25 31.046875 8.25 C 25.402344 8.25 20.472656 11.3125 17.792969 15.855469 L 12.265625 15.855469 C 9.636719 15.855469 7.5 17.992188 7.5 20.617188 L 7.5 36.15625 C 7.5 38.523438 9.269531 40.550781 11.636719 40.875 L 43.996094 45.300781 C 43.96875 45.324219 43.941406 45.355469 43.914062 45.378906 C 41.277344 47.75 37.917969 49.386719 34.195312 50.113281 C 32.769531 50.394531 31.300781 50.535156 29.839844 50.535156 L 22.335938 50.535156 C 21.773438 50.535156 21.316406 50.988281 21.316406 51.550781 C 21.316406 52.113281 21.773438 52.570312 22.335938 52.570312 L 29.839844 52.570312 C 31.433594 52.570312 33.027344 52.417969 34.585938 52.113281 C 38.667969 51.3125 42.363281 49.507812 45.261719 46.902344 C 45.828125 46.40625 46.386719 45.847656 46.914062 45.242188 C 47.308594 44.792969 47.675781 44.320312 48.023438 43.839844 C 48.378906 43.347656 48.714844 42.84375 49.019531 42.316406 C 49.21875 41.96875 49.40625 41.617188 49.582031 41.257812 C 49.746094 40.917969 49.902344 40.574219 50.050781 40.21875 C 50.195312 39.867188 50.332031 39.507812 50.457031 39.148438 C 50.519531 38.953125 50.570312 38.761719 50.628906 38.570312 C 50.777344 38.066406 50.910156 37.5625 51 37.074219 L 54.078125 21.152344 L 54.089844 21.082031 L 55.726562 12.632812 C 55.96875 11.347656 57.09375 10.417969 58.398438 10.417969 L 63.480469 10.417969 C 64.042969 10.417969 64.5 9.960938 64.5 9.398438 C 64.5 8.835938 64.042969 8.378906 63.480469 8.378906 Z M 31.046875 10.285156 C 35.332031 10.285156 39.144531 12.324219 41.589844 15.472656 L 31.085938 27.273438 L 24.769531 19.449219 C 24.417969 19.015625 23.773438 18.945312 23.335938 19.296875 C 22.898438 19.652344 22.832031 20.292969 23.183594 20.730469 L 30.253906 29.488281 C 30.441406 29.71875 30.722656 29.859375 31.023438 29.867188 C 31.335938 29.867188 31.613281 29.742188 31.808594 29.523438 L 42.753906 17.226562 C 43.804688 19.132812 44.402344 21.316406 44.402344 23.640625 C 44.402344 31.007812 38.410156 36.996094 31.046875 36.996094 C 23.683594 36.996094 17.691406 31.007812 17.691406 23.640625 C 17.691406 16.277344 23.683594 10.285156 31.046875 10.285156 Z M 52.089844 20.703125 L 49 36.691406 C 48.910156 37.175781 48.777344 37.675781 48.621094 38.175781 C 48.589844 38.28125 48.5625 38.386719 48.527344 38.492188 C 48.308594 39.128906 48.046875 39.757812 47.75 40.363281 C 47.503906 40.871094 47.21875 41.363281 46.917969 41.839844 C 46.871094 41.910156 46.832031 41.980469 46.785156 42.050781 C 46.492188 42.503906 46.171875 42.9375 45.832031 43.359375 C 45.796875 43.398438 45.761719 43.441406 45.726562 43.480469 L 12.132812 38.882812 L 11.894531 38.855469 C 10.550781 38.671875 9.535156 37.511719 9.535156 36.15625 L 9.535156 20.617188 C 9.535156 19.113281 10.761719 17.890625 12.265625 17.890625 L 16.78125 17.890625 C 16.0625 19.667969 15.65625 21.609375 15.65625 23.640625 C 15.65625 32.128906 22.5625 39.035156 31.046875 39.035156 C 39.535156 39.035156 46.4375 32.128906 46.4375 23.640625 C 46.4375 21.609375 46.035156 19.667969 45.3125 17.890625 L 52.558594 17.890625 Z M 52.089844 20.703125 " fill-opacity="1" fill-rule="nonzero"/></g><g clip-path="url(#0b15d7318b)"><path fill="#000000" d="M 15.382812 63.746094 C 18.441406 63.746094 20.972656 61.460938 21.375 58.507812 L 37.898438 58.507812 C 38.300781 61.460938 40.832031 63.746094 43.890625 63.746094 C 47.230469 63.746094 49.945312 61.03125 49.945312 57.691406 C 49.945312 54.351562 47.230469 51.636719 43.890625 51.636719 C 40.972656 51.636719 38.527344 53.71875 37.960938 56.472656 L 21.3125 56.472656 C 20.75 53.71875 18.304688 51.636719 15.382812 51.636719 C 12.042969 51.636719 9.328125 54.351562 9.328125 57.691406 C 9.328125 61.03125 12.042969 63.746094 15.382812 63.746094 Z M 43.890625 53.671875 C 46.109375 53.671875 47.910156 55.476562 47.910156 57.691406 C 47.910156 59.90625 46.109375 61.710938 43.890625 61.710938 C 41.675781 61.710938 39.875 59.90625 39.875 57.691406 C 39.875 55.476562 41.675781 53.671875 43.890625 53.671875 Z M 15.382812 53.671875 C 17.597656 53.671875 19.398438 55.476562 19.398438 57.691406 C 19.398438 59.90625 17.597656 61.710938 15.382812 61.710938 C 13.167969 61.710938 11.363281 59.90625 11.363281 57.691406 C 11.363281 55.476562 13.167969 53.671875 15.382812 53.671875 Z M 15.382812 53.671875 " fill-opacity="1" fill-rule="nonzero"/></g></svg>