<svg width="19" height="15" viewBox="0 0 19 15" fill="none" xmlns="http://www.w3.org/2000/svg">
<path fill-rule="evenodd" clip-rule="evenodd" d="M5.37367 0.375C4.72568 0.374992 4.19087 0.374984 3.75545 0.41114C3.30313 0.448704 2.88763 0.529344 2.49842 0.731527C1.92005 1.03196 1.44847 1.50354 1.14803 2.08191C0.945848 2.47113 0.865208 2.88663 0.827644 3.33894C0.791486 3.77436 0.791495 4.30916 0.791504 4.95715V10.0428C0.791495 10.6908 0.791486 11.2257 0.827644 11.6611C0.865208 12.1134 0.945848 12.5289 1.14803 12.9181C1.44847 13.4965 1.92005 13.9681 2.49842 14.2685C2.88763 14.4706 3.30313 14.5513 3.75545 14.5889C4.19087 14.625 4.72568 14.625 5.3737 14.625H13.626C14.274 14.625 14.8088 14.625 15.2443 14.5889C15.6965 14.5513 16.1121 14.4706 16.5013 14.2685C17.0797 13.9681 17.5512 13.4965 17.8517 12.9181C18.0538 12.5289 18.1345 12.1134 18.1721 11.6611C18.2082 11.2257 18.2082 10.6908 18.2082 10.0428V4.95718C18.2082 4.30918 18.2082 3.77437 18.1721 3.33894C18.1345 2.88663 18.0538 2.47113 17.8517 2.08191C17.5512 1.50354 17.0797 1.03196 16.5013 0.731527C16.1121 0.529344 15.6965 0.448704 15.2443 0.41114C14.8088 0.374984 14.274 0.374992 13.626 0.375H5.37367ZM3.22829 2.13659C3.35384 2.07138 3.53385 2.01833 3.88649 1.98904C4.2486 1.95897 4.71736 1.95833 5.40692 1.95833H13.5928C14.2823 1.95833 14.751 1.95897 15.1132 1.98904C15.4658 2.01833 15.6459 2.07138 15.7714 2.13659C16.0605 2.28682 16.2964 2.52261 16.4466 2.81179C16.5118 2.93733 16.5648 3.11735 16.5941 3.46998C16.6135 3.70331 16.6206 3.98092 16.6233 4.33333H2.37637C2.37902 3.98092 2.38617 3.70331 2.40555 3.46998C2.43483 3.11735 2.48789 2.93733 2.5531 2.81179C2.70332 2.52261 2.93911 2.28682 3.22829 2.13659ZM2.37484 5.91667V10.0096C2.37484 10.6991 2.37548 11.1679 2.40555 11.5301C2.43483 11.8827 2.48789 12.0627 2.5531 12.1883C2.70332 12.4774 2.93911 12.7132 3.22829 12.8634C3.35384 12.9286 3.53385 12.9817 3.88649 13.011C4.2486 13.041 4.71736 13.0417 5.40692 13.0417H13.5928C14.2823 13.0417 14.751 13.041 15.1132 13.011C15.4658 12.9817 15.6459 12.9286 15.7714 12.8634C16.0605 12.7132 16.2964 12.4774 16.4466 12.1883C16.5118 12.0627 16.5648 11.8827 16.5941 11.5301C16.6242 11.1679 16.6248 10.6991 16.6248 10.0096V5.91667H2.37484Z" fill="black"/>
</svg>
