<svg width="30" height="30" viewBox="0 0 30 30" fill="none" xmlns="http://www.w3.org/2000/svg">
<path fill-rule="evenodd" clip-rule="evenodd" d="M15 2.30769C7.99023 2.30769 2.30769 7.99023 2.30769 15C2.30769 22.0097 7.99023 27.6923 15 27.6923C22.0097 27.6923 27.6923 22.0097 27.6923 15C27.6923 7.99023 22.0097 2.30769 15 2.30769ZM0 15C0 6.71572 6.71572 0 15 0C23.2843 0 30 6.71572 30 15C30 23.2843 23.2843 30 15 30C6.71572 30 0 23.2843 0 15ZM15 13.8462C15.6372 13.8462 16.1538 14.3628 16.1538 15V20.3846C16.1538 21.0218 15.6372 21.5385 15 21.5385C14.3628 21.5385 13.8462 21.0218 13.8462 20.3846V15C13.8462 14.3628 14.3628 13.8462 15 13.8462ZM15 8.84615C14.1503 8.84615 13.4615 9.53495 13.4615 10.3846C13.4615 11.2343 14.1503 11.9231 15 11.9231H15.0154C15.8651 11.9231 16.5538 11.2343 16.5538 10.3846C16.5538 9.53495 15.8651 8.84615 15.0154 8.84615H15Z" fill="#FF7700"/>
</svg>
