<svg width="60" height="60" viewBox="0 0 60 60" fill="none" xmlns="http://www.w3.org/2000/svg">
<path d="M40.4894 41.4894C38.1489 41.4894 36.2341 43.4043 36.2341 45.7447C36.2341 48.0851 38.1489 50 40.4894 50C42.8298 50 44.7447 48.0851 44.7447 45.7447C44.7447 43.4043 42.8298 41.4894 40.4894 41.4894ZM40.4894 48.2979C39.0851 48.2979 37.9362 47.149 37.9362 45.7447C37.9362 44.3404 39.0851 43.1915 40.4894 43.1915C41.8936 43.1915 43.0426 44.3404 43.0426 45.7447C43.0426 47.149 41.8936 48.2979 40.4894 48.2979Z" fill="#0E7300"/>
<path d="M23.4681 41.4894C21.1277 41.4894 19.2128 43.4043 19.2128 45.7447C19.2128 48.0851 21.1277 50 23.4681 50C25.8085 50 27.7234 48.0851 27.7234 45.7447C27.7234 43.4043 25.8085 41.4894 23.4681 41.4894ZM23.4681 48.2979C22.0638 48.2979 20.9149 47.149 20.9149 45.7447C20.9149 44.3404 22.0638 43.1915 23.4681 43.1915C24.8723 43.1915 26.0213 44.3404 26.0213 45.7447C26.0213 47.149 24.8723 48.2979 23.4681 48.2979Z" fill="#0E7300"/>
<path d="M52.4043 17.0638C51.9362 16.383 51.1702 15.9574 50.3192 15.9574H15.5957L15.0851 13.4043C14.7021 11.4043 12.9574 10 10.9149 10H7.85106C7.38298 10 7 10.383 7 10.8511C7 11.3191 7.38298 11.7021 7.85106 11.7021H10.9149C12.1489 11.7021 13.1702 12.5532 13.383 13.7447L14.0213 16.9787C14.0213 17.0638 14.0638 17.1489 14.1064 17.234L17.766 36.383C18.1915 38.383 19.9362 39.8298 21.9787 39.8298H41.8936C43.6809 39.8298 45.2553 38.7234 45.8936 37.0638L52.6596 19.4468C53 18.6383 52.8723 17.7447 52.4043 17.0638ZM51.0851 18.8085L44.3191 36.4255C43.9362 37.4468 43 38.0851 41.9362 38.0851H22.0213C20.8298 38.0851 19.766 37.1915 19.5106 36L16.9574 22.766H37.0426C37.5106 22.766 37.8936 22.383 37.8936 21.9149C37.8936 21.4468 37.5106 21.0638 37.0426 21.0638H16.617L15.9787 17.6596H50.3192C50.617 17.6596 50.8298 17.7872 51 18C51.1702 18.2553 51.2128 18.5532 51.0851 18.8085Z" fill="#0E7300"/>
<path d="M42.1489 21.0638H40.8723C40.4042 21.0638 40.0213 21.4468 40.0213 21.9148C40.0213 22.3829 40.4042 22.7659 40.8723 22.7659H42.1489C42.617 22.7659 43 22.3829 43 21.9148C43 21.4468 42.617 21.0638 42.1489 21.0638Z" fill="#0E7300"/>
</svg>
